<svg width="215" height="184" viewBox="0 0 215 184" fill="none" xmlns="http://www.w3.org/2000/svg">
<g filter="url(#filter0_d_43_24)">
<path d="M152.882 111.738C152.704 110.885 152.419 110.504 152.508 109.641C152.597 108.777 152.921 108.439 152.693 107.878C152.465 107.318 152.063 107.364 151.756 106.919C151.215 106.13 151.717 104.945 151.899 104.427C152.672 102.266 151.585 101.575 151.51 95.967C151.478 93.5665 151.685 94.1446 151.635 91.9978C151.567 89.1284 151.208 88.2965 151.008 84.3343C150.99 83.9395 151.008 84.0206 150.883 81.5143C150.755 78.6131 150.752 78.6272 150.759 78.4263C150.83 76.7519 151.115 76.2725 150.759 75.2538C150.545 74.6087 150.335 74.5487 150.249 73.9248C150.121 73.0012 150.527 72.7192 150.606 71.6476C150.691 70.4949 150.249 70.509 150.249 69.025C150.249 67.8934 150.509 67.8123 150.342 67.0615C150.16 66.2366 149.779 66.004 149.85 65.3201C149.922 64.6363 150.321 64.5094 150.207 64.1322C150.028 63.5717 149.102 63.7338 148.71 63.0465C148.53 62.6565 148.512 62.2121 148.661 61.8092C148.928 60.8468 149.697 60.7904 149.907 59.9797C150.046 59.4544 149.733 59.4368 149.551 58.2982C149.359 57.0503 149.679 56.6802 149.387 55.5804C149.284 55.2034 149.139 54.8392 148.953 54.4947C148.083 52.7674 148.208 49.5384 148.24 48.2165C148.351 42.5412 147.31 39.6083 147.392 36.605C147.438 35.9571 147.379 35.3062 147.218 34.6768C146.965 33.7497 146.68 33.6933 146.623 32.9459C146.577 32.2656 146.787 31.8884 146.52 31.3138C146.426 31.0753 146.267 30.8676 146.06 30.7146C145.704 30.4714 145.312 30.5031 144.664 30.5665C143.659 30.6652 143.16 30.7146 143.014 30.7463C141.233 31.1341 139.313 30.3938 135.637 30.5665C133.407 30.6723 132.513 31.0177 130.799 30.7322C130.365 30.6392 129.921 30.6002 129.478 30.6159C128.145 30.6793 127.732 31.2433 126.578 31.409C125.844 31.5112 126.029 31.2821 124.181 31.1129C122.852 30.986 121.876 30.8979 120.686 31.1623C119.731 31.3702 119.746 31.5641 119.037 31.6064C117.997 31.6663 117.612 31.2751 116.597 31.2997C116.041 31.2997 115.962 31.483 114.755 31.8003C111.111 32.7626 110.502 32.7344 109.946 32.5053C109.59 32.3502 109.233 32.0999 108.695 32.1528C108.158 32.2057 108.026 32.5652 107.495 32.745C106.69 33.0235 106.334 32.4242 105.001 32.2832C104.421 32.2233 104.617 32.3537 102.697 32.4983C101.951 32.5867 101.199 32.6197 100.449 32.597C99.69 32.5018 99.2376 32.2973 98.6498 32.5476C98.3186 32.6886 98.258 32.8508 97.9374 32.9001C97.3817 33.0059 97.0718 32.7027 96.5944 32.5758C95.5008 32.2868 95.1089 33.3831 93.6591 33.3408C92.6189 33.309 92.5904 32.8049 91.65 32.8825C90.535 32.9706 90.2464 33.6827 89.4129 33.4923C88.761 33.3478 88.5294 32.8261 88.02 32.96C87.7465 33.0608 87.4932 33.2088 87.272 33.3972C86.1107 33.3549 82.5947 33.3055 81.1769 33.5734C80.9454 33.6157 80.4645 33.7179 79.752 33.799C79.0395 33.8801 78.9647 33.8448 77.8141 33.9294C76.8773 33.9999 76.3322 34.0493 75.5913 34.0986C74.7791 34.155 74.373 34.1797 74.1913 34.1832C72.7664 34.1832 72.4102 33.8977 71.4377 33.9753C70.8064 34.0316 70.1933 34.2138 69.6352 34.5111C68.5665 34.6697 67.7008 34.779 67.0347 34.8636C66.2083 34.9623 65.8128 34.994 65.3889 35.0152C64.7192 35.0504 64.3202 35.0152 63.7645 35.0152L60.7509 35.0927H57.901C56.6863 35.7272 55.7922 35.7378 55.1973 35.625C54.3138 35.4628 54.1963 35.0539 53.3449 35.0152C52.2762 34.9693 52.123 35.5827 50.8727 35.625C50.0284 35.6567 49.8752 35.3853 49.0915 35.4734C48.4733 35.5599 47.888 35.8027 47.3923 36.1784L44.6138 36.4851C43.3221 37.0277 41.9268 37.2863 40.5243 37.243C39.9246 37.2222 39.3283 37.1455 38.7432 37.0139L35.3447 36.9363L34.8068 37.7788L33.186 38.5402C32.5092 38.4274 31.7005 38.297 30.7922 38.1595C28.9897 37.8881 28.4945 37.8493 27.8569 38.0079C27.5337 38.0984 27.219 38.2163 26.9164 38.3604C26.7998 38.3995 26.6808 38.4312 26.5602 38.4556C25.8192 38.5966 24.6294 38.2582 23.9918 38.6283C23.5821 38.861 23.4824 39.3334 23.2793 40.2569C23.062 41.2898 23.3292 41.4131 23.1119 42.654C23.0466 43.2192 22.9002 43.7723 22.6773 44.2966C22.46 44.7725 22.2783 44.9523 22.2427 45.3542C22.2259 45.8005 22.3628 46.2393 22.631 46.5985C22.9872 47.1378 23.1368 48.2377 23.4539 50.4338C24.0274 54.3889 22.9089 55.4993 23.6783 59.3522C23.9312 60.6247 24.2554 61.5236 24.519 63.5823C24.7149 65.0945 24.7541 66.2789 24.7612 66.5997C24.804 68.112 24.7007 68.6971 24.5582 71.8697C24.5048 73.1035 24.4763 73.7239 24.4727 74.1751C24.4335 76.9211 24.8503 78.1972 25.1852 80.9044C25.317 81.9337 25.4203 84.0453 25.6197 88.2718C25.6509 90.0727 25.8296 91.8682 26.1541 93.6405C26.3616 94.7129 26.6328 95.7722 26.9663 96.813C26.9663 98.1561 26.9414 99.4991 26.9307 100.842L27.5113 101.78C28.3912 106.01 28.2558 108.315 27.9459 109.662C27.6974 110.632 27.6155 111.637 27.7037 112.634C27.8034 113.726 28.0599 114.005 28.2843 115.08C28.7902 117.318 28.1846 118.037 28.4304 120.738C28.5258 121.781 28.7177 122.813 29.0039 123.822L30.6247 123.709C32.2313 123.607 35.4694 123.42 40.2037 123.325C42.3838 123.283 44.5603 123.166 46.744 123.181C48.8493 123.181 49.918 123.272 51.1042 122.8C51.6543 122.554 52.2441 122.407 52.8462 122.366C53.7688 122.31 53.8222 122.571 54.5917 122.56C56.2909 122.528 57.1672 121.231 58.129 121.696C58.3641 121.809 58.4389 121.95 58.7489 122.014C59.2654 122.119 59.6002 121.834 60.1132 121.661C60.7794 121.418 61.3742 121.499 62.5676 121.661C63.6363 121.799 63.6363 121.975 64.3131 121.971C64.8047 121.971 65.3141 121.823 66.3151 121.524C67.7044 121.111 68.0749 120.886 68.6876 121.044C69.1543 121.168 69.1364 121.347 69.5603 121.429C70.3583 121.58 70.8855 121.037 71.6478 120.706C72.0967 120.509 72.2499 120.551 75.0854 120.614C76.7561 120.65 77.579 120.671 78.4732 120.66C79.6309 120.642 80.4823 120.632 81.526 120.519C83.5244 120.301 83.5779 119.994 85.3697 119.751C87.3788 119.476 87.703 119.807 90.0007 119.603C91.4968 119.465 91.3757 119.324 93.5879 118.986C98.543 118.221 99.4229 118.891 101.532 118.168C102.105 117.898 102.749 117.814 103.373 117.928C104.189 118.14 104.499 118.742 105.212 118.661C105.614 118.616 105.66 118.408 106.184 118.217C106.768 118.028 107.394 118.006 107.99 118.154C108.41 118.235 112.14 118.037 119.603 117.643C124.01 117.41 136.203 116.613 152.668 115.076C153.02 113.999 153.094 112.851 152.882 111.738ZM27.6645 46.1861C27.6645 45.9769 27.7272 45.7725 27.8446 45.5986C27.962 45.4246 28.1289 45.2891 28.3242 45.2091C28.5195 45.129 28.7344 45.1081 28.9417 45.1489C29.149 45.1897 29.3394 45.2904 29.4888 45.4383C29.6383 45.5862 29.7401 45.7746 29.7813 45.9798C29.8226 46.1849 29.8014 46.3975 29.7205 46.5908C29.6396 46.784 29.5026 46.9492 29.3269 47.0654C29.1512 47.1816 28.9445 47.2436 28.7332 47.2436C28.4497 47.2436 28.1779 47.1322 27.9775 46.9339C27.7771 46.7355 27.6645 46.4666 27.6645 46.1861V46.1861ZM28.3769 53.5887C28.3769 53.3796 28.4396 53.1751 28.5571 53.0012C28.6745 52.8273 28.8414 52.6917 29.0367 52.6117C29.2319 52.5317 29.4468 52.5107 29.6541 52.5515C29.8614 52.5923 30.0518 52.693 30.2013 52.8409C30.3508 52.9888 30.4525 53.1773 30.4938 53.3824C30.535 53.5875 30.5138 53.8002 30.433 53.9934C30.3521 54.1866 30.2151 54.3518 30.0394 54.468C29.8636 54.5842 29.657 54.6462 29.4456 54.6462C29.1622 54.6462 28.8904 54.5348 28.69 54.3365C28.4895 54.1382 28.3769 53.8692 28.3769 53.5887V53.5887ZM29.0894 60.5719C29.0894 60.3627 29.1521 60.1582 29.2695 59.9843C29.3869 59.8104 29.5538 59.6749 29.7491 59.5948C29.9444 59.5148 30.1593 59.4939 30.3666 59.5347C30.5739 59.5755 30.7643 59.6762 30.9138 59.8241C31.0632 59.972 31.165 60.1604 31.2062 60.3656C31.2475 60.5707 31.2263 60.7833 31.1454 60.9766C31.0645 61.1698 30.9276 61.335 30.7518 61.4512C30.5761 61.5674 30.3694 61.6294 30.1581 61.6294C30.016 61.6322 29.8747 61.6069 29.7425 61.555C29.6104 61.5032 29.4901 61.4257 29.3886 61.3272C29.287 61.2287 29.2064 61.1112 29.1514 60.9815C29.0963 60.8518 29.068 60.7125 29.068 60.5719H29.0894ZM29.8019 67.9745C29.8019 67.7653 29.8645 67.5609 29.982 67.387C30.0994 67.2131 30.2663 67.0775 30.4616 66.9975C30.6568 66.9174 30.8717 66.8965 31.079 66.9373C31.2863 66.9781 31.4767 67.0788 31.6262 67.2267C31.7757 67.3746 31.8774 67.563 31.9187 67.7682C31.9599 67.9733 31.9388 68.186 31.8579 68.3792C31.777 68.5724 31.64 68.7376 31.4643 68.8538C31.2885 68.97 31.0819 69.032 30.8705 69.032C30.7284 69.0348 30.5871 69.0096 30.455 68.9577C30.3229 68.9058 30.2025 68.8283 30.101 68.7299C29.9995 68.6314 29.9189 68.5138 29.8638 68.3841C29.8088 68.2544 29.7805 68.1152 29.7805 67.9745H29.8019ZM30.1581 74.4254C30.1581 74.2162 30.2208 74.0117 30.3382 73.8378C30.4556 73.6639 30.6225 73.5284 30.8178 73.4483C31.0131 73.3683 31.2279 73.3474 31.4353 73.3882C31.6426 73.429 31.833 73.5297 31.9824 73.6776C32.1319 73.8255 32.2337 74.0139 32.2749 74.2191C32.3161 74.4242 32.295 74.6368 32.2141 74.8301C32.1332 75.0233 31.9962 75.1885 31.8205 75.3047C31.6447 75.4209 31.4381 75.4829 31.2268 75.4829C31.0843 75.4862 30.9427 75.4612 30.8101 75.4096C30.6776 75.3579 30.5568 75.2805 30.4549 75.182C30.353 75.0835 30.2721 74.9658 30.2168 74.8358C30.1616 74.7059 30.1331 74.5663 30.1331 74.4254H30.1581ZM30.8705 81.828C30.8705 81.6188 30.9332 81.4144 31.0506 81.2405C31.1681 81.0666 31.335 80.931 31.5303 80.851C31.7255 80.7709 31.9404 80.75 32.1477 80.7908C32.355 80.8316 32.5454 80.9323 32.6949 81.0802C32.8443 81.2281 32.9461 81.4165 32.9874 81.6217C33.0286 81.8268 33.0074 82.0395 32.9265 82.2327C32.8457 82.4259 32.7087 82.5911 32.5329 82.7073C32.3572 82.8235 32.1506 82.8855 31.9392 82.8855C31.7965 82.8893 31.6545 82.8647 31.5215 82.8133C31.3885 82.7618 31.2673 82.6845 31.1651 82.5859C31.0628 82.4873 30.9815 82.3695 30.926 82.2393C30.8705 82.1091 30.842 81.9693 30.842 81.828H30.8705ZM31.583 88.8111C31.583 88.602 31.6457 88.3975 31.7631 88.2236C31.8805 88.0497 32.0474 87.9142 32.2427 87.8341C32.438 87.7541 32.6529 87.7331 32.8602 87.7739C33.0675 87.8148 33.2579 87.9155 33.4073 88.0634C33.5568 88.2113 33.6586 88.3997 33.6998 88.6048C33.7411 88.81 33.7199 89.0226 33.639 89.2158C33.5581 89.4091 33.4211 89.5742 33.2454 89.6904C33.0697 89.8066 32.863 89.8687 32.6517 89.8687C32.5089 89.8724 32.3669 89.8479 32.2339 89.7964C32.101 89.7449 31.9798 89.6677 31.8775 89.5691C31.7752 89.4705 31.694 89.3526 31.6385 89.2225C31.583 89.0923 31.5544 88.9524 31.5545 88.8111H31.583ZM32.2954 96.2138C32.2954 96.0046 32.3581 95.8002 32.4755 95.6263C32.593 95.4523 32.7599 95.3168 32.9552 95.2368C33.1504 95.1567 33.3653 95.1358 33.5726 95.1766C33.7799 95.2174 33.9703 95.3181 34.1198 95.466C34.2693 95.6139 34.371 95.8023 34.4123 96.0075C34.4535 96.2126 34.4323 96.4252 34.3515 96.6185C34.2706 96.8117 34.1336 96.9769 33.9579 97.0931C33.7821 97.2093 33.5755 97.2713 33.3641 97.2713C33.2211 97.2755 33.0787 97.2513 32.9453 97.2001C32.8119 97.1489 32.6903 97.0716 32.5876 96.973C32.485 96.8744 32.4034 96.7564 32.3477 96.6259C32.292 96.4955 32.2633 96.3554 32.2634 96.2138H32.2954ZM32.6517 103.616C32.6517 103.407 32.7143 103.203 32.8318 103.029C32.9492 102.855 33.1161 102.719 33.3114 102.639C33.5067 102.559 33.7215 102.538 33.9288 102.579C34.1361 102.62 34.3266 102.721 34.476 102.869C34.6255 103.017 34.7273 103.205 34.7685 103.41C34.8097 103.615 34.7886 103.828 34.7077 104.021C34.6268 104.214 34.4898 104.379 34.3141 104.496C34.1383 104.612 33.9317 104.674 33.7204 104.674C33.5776 104.678 33.4355 104.654 33.3024 104.603C33.1692 104.552 33.0478 104.475 32.9451 104.377C32.8425 104.279 32.7609 104.161 32.705 104.031C32.649 103.901 32.62 103.761 32.6196 103.62L32.6517 103.616ZM33.3641 110.6C33.3641 110.39 33.4268 110.186 33.5442 110.012C33.6617 109.838 33.8286 109.703 34.0238 109.623C34.2191 109.543 34.434 109.522 34.6413 109.562C34.8486 109.603 35.039 109.704 35.1885 109.852C35.3379 110 35.4397 110.188 35.481 110.393C35.5222 110.598 35.501 110.811 35.4201 111.004C35.3393 111.197 35.2023 111.363 35.0265 111.479C34.8508 111.595 34.6442 111.657 34.4328 111.657C34.2898 111.662 34.1473 111.638 34.0137 111.587C33.8802 111.536 33.7583 111.46 33.6553 111.361C33.5523 111.263 33.4703 111.145 33.4142 111.015C33.358 110.885 33.3289 110.745 33.3285 110.603L33.3641 110.6ZM35.1453 119.06C34.9339 119.06 34.7273 118.998 34.5515 118.881C34.3758 118.765 34.2388 118.6 34.1579 118.407C34.077 118.214 34.0559 118.001 34.0971 117.796C34.1383 117.591 34.2401 117.402 34.3896 117.254C34.539 117.107 34.7295 117.006 34.9368 116.965C35.1441 116.924 35.3589 116.945 35.5542 117.025C35.7495 117.105 35.9164 117.241 36.0338 117.415C36.1513 117.589 36.2139 117.793 36.2139 118.002C36.214 118.144 36.1852 118.285 36.129 118.416C36.0729 118.547 35.9906 118.665 35.8872 118.764C35.7838 118.863 35.6613 118.94 35.5271 118.991C35.3929 119.041 35.2497 119.065 35.1061 119.06H35.1453Z" fill="#FFFDFA"/>
</g>
<path d="M133.579 18.3481C131.28 19.8661 129.065 21.5038 126.945 23.2543C114.916 33.1761 108.905 44.2423 105.206 51.2183C101.288 58.6161 98.2177 66.4167 96.0507 74.4774C95.0385 75.2551 94.173 76.2007 93.4936 77.2714C93.108 77.8815 92.7847 78.5275 92.5284 79.1999C91.8291 77.6191 91.5694 75.8849 91.7757 74.1737L98.1612 60.3312C97.862 58.5386 97.7726 56.7183 97.8947 54.9058C97.9654 53.2456 98.2596 51.6018 98.7699 50.0173C99.2022 48.7167 99.7872 47.4697 100.513 46.3015C100.516 47.2878 100.604 48.272 100.776 49.2438C100.866 49.7665 100.974 50.254 101.093 50.7061C101.111 49.455 101.214 48.2066 101.403 46.9691C101.777 44.5994 102.436 42.2815 103.365 40.0637C104.61 36.933 106.206 33.9476 108.123 31.1627C110.036 28.2699 111.296 26.9595 112.038 26.246C112.965 25.3433 113.966 24.5164 115.031 23.7735C114.553 24.7988 114.244 25.8921 114.116 27.0125C114.038 27.6892 114.027 28.3717 114.084 29.0505C114.888 27.5079 115.822 26.0335 116.875 24.6424C118.384 22.6432 124.629 14.6358 135.459 12.6896C137.875 12.2608 140.34 12.1574 142.785 12.3823C142.171 13.0209 141.601 13.6982 141.077 14.4098C138.974 17.2991 139.053 18.9097 136.824 22.9929C136.13 24.3232 135.307 25.5842 134.364 26.7582C133.529 27.7967 132.581 28.743 131.537 29.5803C129.869 30.8978 128.904 31.1486 125.792 32.8193C124.885 33.3068 123.556 34.0379 121.971 35.0057C123.138 34.7231 124.373 34.377 125.666 33.9461C127.744 33.2565 129.768 32.4183 131.721 31.4382C131.27 32.3849 130.615 33.6847 129.732 35.1859C127.319 39.3008 125.22 42.8753 121.359 44.9275C120.167 45.5224 118.943 46.053 117.692 46.517C114.97 47.5766 113.115 47.9969 113.137 48.0746C113.158 48.1524 115.658 47.7214 118.452 46.8702C120.288 46.318 122.086 45.649 123.833 44.8675C122.341 47.5607 120.457 50.0262 118.24 52.1861C116.971 53.4796 115.556 54.6267 114.022 55.6052C111.685 57.0498 109.153 57.9823 107.302 58.664C106.191 59.0583 105.119 59.5488 104.097 60.1299C103.474 60.4859 102.873 60.8763 102.296 61.299C103.845 57.042 105.714 52.9038 107.889 48.9188C109.866 45.3019 111.609 42.6952 112.964 40.6748C115.305 37.1956 118.006 33.1796 122.173 28.6302C125.632 24.8544 129.452 21.4114 133.579 18.3481V18.3481Z" fill="#545454"/>
<path d="M44.0594 95.108C43.6298 95.1481 43.2837 95.0594 43.0211 94.8417C42.77 94.6102 42.5994 94.1482 42.5091 93.4555C42.4268 92.7111 42.3198 91.9753 42.1882 91.2483C42.0565 90.5213 41.8904 89.8357 41.69 89.1915C41.4107 88.2488 41.0707 87.4074 40.6701 86.6672C40.2695 85.9271 39.7463 85.3067 39.1004 84.8062C38.9898 84.7146 38.8988 84.6275 38.8274 84.5449C38.7559 84.4623 38.7149 84.3642 38.7043 84.2505C38.6795 83.9851 38.7949 83.7194 39.0504 83.4533C39.3048 83.1746 39.6216 83.0175 40.0007 82.982C40.443 82.9407 40.8398 83.0948 41.1912 83.4444C41.5425 83.794 41.8638 84.2994 42.1551 84.9605C42.4854 85.6308 42.7648 86.3695 42.9932 87.1767C43.2216 87.984 43.4012 88.8149 43.5321 89.6695C43.6744 90.5103 43.7827 91.3287 43.8571 92.1249C43.8831 92.4029 43.9381 92.5826 44.0222 92.664C44.1063 92.7453 44.2431 92.7772 44.4327 92.7594C44.8497 92.7205 45.2486 92.5557 45.6294 92.2652C46.0228 91.9735 46.3637 91.5974 46.6521 91.1371C46.952 90.6629 47.1782 90.151 47.3308 89.6013C47.4834 89.0517 47.5406 88.5046 47.5025 87.96C47.462 87.3901 47.3095 86.8499 47.0451 86.3392C46.7921 85.8147 46.4836 85.3782 46.1196 85.0298C46.0217 84.937 45.9439 84.855 45.8863 84.7839C45.8401 84.699 45.8129 84.6123 45.8046 84.5239C45.7857 84.3217 45.8496 84.1181 45.9962 83.9132C46.1427 83.7083 46.3175 83.5326 46.5205 83.3862C46.7236 83.2397 46.9009 83.1594 47.0525 83.1453C47.3685 83.1157 47.6557 83.3247 47.9142 83.7722C48.1842 84.2059 48.4257 84.7442 48.6388 85.3872C48.9315 86.2011 49.1706 87.1221 49.3559 88.1501C49.5412 89.178 49.6876 90.267 49.795 91.417C49.8245 91.7329 49.8762 91.9448 49.95 92.0526C50.0238 92.1605 50.1682 92.2043 50.383 92.1843C50.8379 92.1417 51.2649 91.9361 51.6638 91.5674C52.0628 91.1987 52.4 90.7147 52.6754 90.1153C52.9623 89.5021 53.1662 88.8202 53.2873 88.0695C53.4198 87.305 53.4477 86.5121 53.3709 85.6907C53.3131 85.0714 53.2159 84.577 53.0793 84.2073C52.9543 83.8239 52.8398 83.5541 52.736 83.3981C52.5872 83.1698 52.5051 82.9735 52.4898 82.8092C52.4721 82.6197 52.5377 82.4351 52.6866 82.2554C52.847 82.062 53.0419 81.8972 53.2714 81.761C53.5009 81.6248 53.7041 81.5485 53.881 81.5319C54.159 81.506 54.3661 81.6077 54.5023 81.8372C54.6499 82.0528 54.7523 82.3301 54.8094 82.6689C54.8792 83.0066 54.9283 83.3271 54.9567 83.6304C55.0381 84.5023 55.029 85.4274 54.9292 86.4055C54.8408 87.3698 54.6686 88.3228 54.4124 89.2646C54.1551 90.1937 53.8205 91.0472 53.4088 91.825C53.0085 92.589 52.5321 93.2199 51.9795 93.7177C51.4257 94.2029 50.8076 94.4774 50.1252 94.5411C49.6703 94.5836 49.326 94.5138 49.0922 94.3317C48.8585 94.1496 48.6929 93.8783 48.5955 93.5177C48.4981 93.1571 48.4263 92.7304 48.3803 92.2376C48.3531 91.9469 48.3277 91.6752 48.3041 91.4225C48.2919 91.1559 48.2758 90.9152 48.2557 90.7004C47.7961 92.0563 47.1874 93.1139 46.4298 93.8731C45.6709 94.6196 44.8808 95.0312 44.0594 95.108ZM57.8605 93.7609C57.6583 93.7798 57.4904 93.7572 57.357 93.6932C57.2373 93.6407 57.1888 93.5305 57.2114 93.3626C57.2996 92.8063 57.3619 92.2459 57.3984 91.6816C57.4464 91.1035 57.4462 90.5554 57.3977 90.0373C57.3352 89.3675 57.2455 88.8851 57.1287 88.5901C57.0233 88.2812 56.8958 88.0765 56.7462 87.9757C56.5954 87.8623 56.4159 87.7835 56.2078 87.7392C56.1158 87.7096 56.0289 87.6667 55.9472 87.6106C55.8781 87.5533 55.8383 87.4678 55.8276 87.3541C55.8111 87.1771 55.8623 86.9748 55.9812 86.747C56.1002 86.5191 56.2789 86.3176 56.5175 86.1423C56.7549 85.9544 57.0379 85.8451 57.3664 85.8144C57.7961 85.7743 58.1072 85.8982 58.2998 86.1861C58.5039 86.4602 58.6284 86.8374 58.6733 87.3176C58.8535 86.7909 59.0943 86.3668 59.3957 86.0454C59.7086 85.7103 60.1178 85.5191 60.6232 85.4718C60.9644 85.4399 61.2559 85.4892 61.4975 85.6196C61.7391 85.75 61.8759 85.9858 61.9078 86.327C61.9397 86.6682 61.8561 87.001 61.6569 87.3256C61.4693 87.6363 61.2617 87.8023 61.0342 87.8236C60.9963 87.8271 60.9515 87.8249 60.8998 87.817C60.848 87.8091 60.8009 87.7816 60.7582 87.7346C60.575 87.5478 60.3634 87.4656 60.1233 87.488C59.7568 87.5223 59.457 87.7925 59.2239 88.2987C58.9907 88.8049 58.9011 89.4825 58.9549 90.3315C58.9971 90.6463 59.0335 90.9679 59.0642 91.2965C59.1076 91.6239 59.1363 91.8634 59.1505 92.015C59.1942 92.4826 59.0975 92.8804 58.8605 93.2085C58.6361 93.5354 58.3028 93.7196 57.8605 93.7609ZM64.024 83.4714C63.669 83.4918 63.3747 83.4109 63.1409 83.2288C62.9072 83.0467 62.7732 82.7724 62.739 82.4059C62.715 82.013 62.8182 81.6847 63.0485 81.421C63.2776 81.1446 63.5886 80.9944 63.9815 80.9705C64.3492 80.9488 64.6436 81.0297 64.8647 81.213C65.0984 81.3951 65.2261 81.67 65.2477 82.0376C65.2705 82.4179 65.1736 82.7457 64.9571 83.0209C64.7395 83.2834 64.4284 83.4336 64.024 83.4714ZM64.9411 93.0801C64.562 93.1155 64.2556 93.0422 64.0219 92.86C63.787 92.6653 63.6459 92.3152 63.5986 91.8097C63.5715 91.519 63.5702 91.2323 63.5948 90.9496C63.632 90.6657 63.6761 90.3875 63.7271 90.115C63.7896 89.8287 63.8325 89.5379 63.8559 89.2425C63.8919 88.946 63.8946 88.6334 63.8639 88.3049C63.8426 88.0774 63.7909 87.8655 63.7089 87.6692C63.6256 87.4603 63.4718 87.3153 63.2476 87.2343C63.075 87.1612 62.9214 87.0863 62.7868 87.0097C62.6636 86.9192 62.5949 86.7981 62.5807 86.6465C62.5642 86.4696 62.6286 86.2723 62.774 86.0548C62.9194 85.8373 63.1183 85.6466 63.3707 85.4828C63.6345 85.3051 63.9118 85.2027 64.2024 85.1756C64.5184 85.1461 64.7535 85.2069 64.9079 85.3582C65.0749 85.5083 65.1954 85.7074 65.2696 85.9554C65.3438 86.2034 65.3933 86.4601 65.4181 86.7255C65.4558 87.1299 65.4615 87.5309 65.4349 87.9286C65.4071 88.3136 65.377 88.6733 65.3445 89.0078C65.3164 89.2526 65.2992 89.4773 65.2928 89.6819C65.2864 89.8864 65.2915 90.0772 65.308 90.2541C65.3375 90.57 65.4358 90.803 65.6028 90.9532C65.7686 91.0906 65.997 91.2159 66.288 91.3289C66.4077 91.3815 66.4734 91.4709 66.4852 91.5973C66.4947 91.6984 66.4589 91.8611 66.3779 92.0854C66.2968 92.3096 66.1382 92.522 65.902 92.7226C65.6784 92.9219 65.3581 93.0411 64.9411 93.0801ZM70.8046 92.5895C70.0337 92.6615 69.4541 92.4607 69.0657 91.9871C68.6887 91.4997 68.4624 90.8516 68.3868 90.0429C68.3596 89.7522 68.3457 89.4667 68.345 89.1863C68.3569 88.9048 68.3689 88.6232 68.3808 88.3416C68.3927 88.0601 68.4052 87.7848 68.4184 87.5159C68.4315 87.247 68.4394 86.9913 68.4423 86.7488C68.184 86.8495 67.9221 86.9122 67.6568 86.937C67.3788 86.963 67.2291 86.8622 67.2079 86.6347C67.1854 86.3946 67.2657 86.094 67.4486 85.7327C67.6304 85.3588 67.8633 84.9864 68.1473 84.6157C68.444 84.2438 68.7397 83.9294 69.0343 83.6724C69.3405 83.4016 69.6073 83.2555 69.8347 83.2343C70.1128 83.2083 70.2742 83.4354 70.3191 83.9156C70.3309 84.042 70.3306 84.1759 70.3184 84.3172C70.3175 84.4448 70.311 84.5792 70.2987 84.7206C70.5341 84.6476 70.77 84.581 71.0066 84.5206C71.2558 84.4591 71.4941 84.4177 71.7216 84.3964C72.0123 84.3693 72.2381 84.3991 72.3992 84.4861C72.573 84.5718 72.6734 84.76 72.7006 85.0507C72.7289 85.3539 72.6814 85.6643 72.5581 85.9818C72.4475 86.2981 72.3037 86.4645 72.1268 86.481C72.0888 86.4845 72.0251 86.4841 71.9354 86.4798C71.8458 86.4754 71.7366 86.4665 71.6079 86.453C71.44 86.4305 71.228 86.412 70.9717 86.3977C70.7154 86.3834 70.4104 86.3928 70.0565 86.4259C70.0047 86.8259 69.9603 87.238 69.9235 87.6621C69.8981 88.0724 69.9007 88.4418 69.9314 88.7704C69.9999 89.5033 70.2298 89.9854 70.6211 90.2165C71.0124 90.4476 71.5555 90.5307 72.2506 90.4658C72.4654 90.4457 72.6206 90.4694 72.7161 90.537C72.8105 90.5919 72.8659 90.7078 72.8825 90.8847C72.9214 91.3018 72.7397 91.6757 72.3372 92.0065C71.9347 92.3373 71.4238 92.5316 70.8046 92.5895ZM77.2144 91.9905C76.254 92.0802 75.4767 91.8788 74.8825 91.3862C74.2998 90.8798 73.9624 90.1337 73.8703 89.148C73.7864 88.2508 73.9061 87.4174 74.2294 86.6478C74.5526 85.8783 75.0228 85.2479 75.6397 84.7569C76.2682 84.252 76.9804 83.9623 77.7766 83.8879C78.5348 83.8171 79.1591 83.9499 79.6495 84.2865C80.1386 84.6105 80.4122 85.0821 80.47 85.7013C80.5161 86.1942 80.407 86.6633 80.1426 87.1086C79.8783 87.554 79.5052 87.9267 79.0234 88.2267C78.5403 88.514 77.9892 88.6866 77.37 88.7445C76.6118 88.8153 75.9766 88.7026 75.4645 88.4063C75.5315 88.9864 75.771 89.4357 76.1832 89.7541C76.608 90.0713 77.1237 90.2016 77.7303 90.1449C78.0968 90.1106 78.4637 90.0126 78.831 89.8508C79.2097 89.6752 79.5275 89.4607 79.7842 89.2072C79.947 89.039 80.1042 88.9479 80.2558 88.9337C80.3822 88.9219 80.4874 88.9567 80.5715 89.038C80.6671 89.1056 80.7207 89.2025 80.7326 89.3289C80.7585 89.6069 80.5527 89.9958 80.115 90.4957C79.3439 91.3836 78.377 91.8818 77.2144 91.9905ZM77.0825 87.5093C77.5374 87.4668 77.9077 87.3366 78.1932 87.1187C78.4788 86.9008 78.608 86.6465 78.5808 86.3559C78.5584 86.1158 78.4402 85.942 78.2262 85.8345C78.011 85.7144 77.7265 85.6709 77.3727 85.704C76.9051 85.7476 76.5062 85.9124 76.176 86.1982C75.8572 86.4702 75.6427 86.8344 75.5324 87.2909C75.7199 87.3881 75.9556 87.4553 76.2396 87.4925C76.5235 87.5297 76.8044 87.5353 77.0825 87.5093ZM90.8865 90.6554C90.7348 90.6696 90.5745 90.6591 90.4055 90.6239C90.2491 90.5875 90.1115 90.4793 89.9927 90.2992C89.8739 90.1191 89.7962 89.8331 89.7596 89.4414C89.7336 89.1634 89.7207 88.8204 89.7208 88.4125C89.7335 88.0034 89.756 87.5615 89.7881 87.0868C89.8302 86.4455 89.8503 85.7744 89.8485 85.0735C89.8582 84.3587 89.8288 83.6348 89.7603 82.9019C89.7048 82.3079 89.6254 81.7991 89.5221 81.3753C89.4302 80.9378 89.3288 80.6031 89.2179 80.3712C88.7389 80.4287 88.2869 80.5028 87.8619 80.5935C87.437 80.6842 87.0087 80.8071 86.577 80.9622C86.4645 80.9855 86.3652 81.0139 86.2791 81.0474C86.2044 81.0671 86.1292 81.0805 86.0534 81.0876C85.9396 81.0982 85.8557 81.087 85.8016 81.0538C85.7464 81.008 85.7105 80.8966 85.6939 80.7197C85.6738 80.5048 85.6848 80.2807 85.7267 80.0474C85.7674 79.8013 85.8433 79.5903 85.9544 79.4142C86.0642 79.2255 86.1977 79.0855 86.3549 78.9944C86.5236 78.8894 86.7078 78.8148 86.9076 78.7706C87.22 78.7032 87.6214 78.6338 88.1119 78.5625C88.6012 78.4785 89.1354 78.3967 89.7143 78.3171C90.3059 78.2363 90.886 78.1694 91.4547 78.1162C92.3772 78.03 93.0349 77.9749 93.4278 77.951C93.8334 77.9258 94.1069 77.9194 94.2482 77.9316C94.4275 77.9404 94.5529 77.986 94.6243 78.0686C94.7072 78.1373 94.757 78.2602 94.7735 78.4371C94.8054 78.7783 94.6856 79.1336 94.4142 79.5032C94.302 79.6666 94.1805 79.7991 94.0498 79.9005C93.9179 79.9894 93.7376 80.0381 93.5089 80.0467C93.3044 80.0403 93.0057 80.0491 92.6127 80.0731C92.2198 80.0971 91.7832 80.1315 91.303 80.1764C91.3317 80.6198 91.3422 81.1415 91.3345 81.7414C91.3383 82.3274 91.33 82.9209 91.3097 83.5219C91.2882 84.1103 91.2794 84.6975 91.2831 85.2836C91.2869 85.8696 91.3112 86.4027 91.3561 86.8829C91.3975 87.3252 91.472 87.7134 91.5797 88.0475C91.6988 88.3678 91.896 88.6362 92.1712 88.8527C92.3646 89.0131 92.4708 89.1944 92.4897 89.3966C92.5157 89.6746 92.3814 89.9421 92.0867 90.1991C91.792 90.4561 91.3919 90.6082 90.8865 90.6554ZM97.818 90.065C96.946 90.1465 96.2228 89.9783 95.6484 89.5603C95.0854 89.1285 94.7608 88.4514 94.6745 87.5289C94.6344 87.0992 94.6523 86.6769 94.7282 86.2619C94.8168 85.8457 94.9457 85.4512 95.1148 85.0785C94.9244 85.2237 94.7787 85.3011 94.6776 85.3105C94.5259 85.3247 94.4108 85.2526 94.3323 85.0942C94.2652 84.922 94.224 84.7538 94.2086 84.5895C94.1815 84.2989 94.2171 84.0661 94.3155 83.8912C94.4253 83.7024 94.533 83.5585 94.6384 83.4594C94.8826 83.2072 95.2766 82.9218 95.8204 82.6033C96.3631 82.2721 97.0325 82.0693 97.8287 81.9949C98.9154 81.8934 99.7841 82.1181 100.435 82.6692C101.098 83.2191 101.48 84.0374 101.582 85.1242C101.661 85.9709 101.556 86.7583 101.267 87.4864C100.977 88.2019 100.535 88.7913 99.9412 89.2547C99.3598 89.717 98.652 89.9871 97.818 90.065ZM98.2249 88.0767C98.8568 88.0176 99.3692 87.7721 99.7623 87.3402C100.167 86.8945 100.338 86.3431 100.277 85.686C100.213 85.0036 99.9465 84.5377 99.4771 84.2884C99.0076 84.0391 98.4822 83.9416 97.9009 83.9959C97.6355 84.0207 97.3978 84.0684 97.1877 84.139C96.9776 84.2096 96.7813 84.2917 96.5988 84.3853C96.4455 84.6545 96.3141 84.9536 96.2047 85.2826C96.0952 85.6115 96.0581 85.9655 96.0936 86.3446C96.1526 86.9764 96.387 87.4389 96.7969 87.7321C97.2055 88.0126 97.6815 88.1274 98.2249 88.0767ZM106.305 94.3007C105.358 94.3893 104.587 94.2637 103.995 93.9239C103.402 93.5841 103.077 93.1046 103.019 92.4854C102.976 92.0305 103.078 91.6131 103.323 91.2333C103.58 90.8523 103.943 90.6399 104.41 90.5962C104.676 90.5714 104.815 90.6349 104.83 90.7865C104.838 90.875 104.828 90.9778 104.801 91.0951C104.786 91.2112 104.784 91.3261 104.795 91.4399C104.828 91.7937 105.055 92.0339 105.474 92.1604C105.895 92.2995 106.39 92.3425 106.959 92.2893C107.313 92.2563 107.669 92.1847 108.029 92.0746C108.388 91.9646 108.68 91.8162 108.905 91.6294C109.143 91.4542 109.25 91.2339 109.225 90.9685C109.198 90.6778 109.033 90.4766 108.729 90.3647C108.426 90.2529 108.049 90.1797 107.6 90.1452C107.151 90.1234 106.691 90.1027 106.217 90.0832C105.757 90.0752 105.357 90.0233 105.017 89.9277C104.587 89.8276 104.262 89.686 104.04 89.5027C103.819 89.3194 103.694 89.0698 103.665 88.7538C103.609 88.1599 103.925 87.6523 104.612 87.2312C104.175 87.0553 103.831 86.7816 103.579 86.4099C103.341 86.037 103.199 85.6105 103.154 85.1303C103.096 84.5111 103.2 83.915 103.465 83.3421C103.743 82.768 104.181 82.2808 104.781 81.8806C105.393 81.4665 106.179 81.2146 107.139 81.1248C107.569 81.0847 108.009 81.0882 108.459 81.1353C108.909 81.1698 109.289 81.2872 109.601 81.4875C109.925 81.674 110.106 81.9757 110.145 82.3928C110.159 82.5444 110.143 82.718 110.098 82.9134C110.051 83.0962 109.94 83.1959 109.763 83.2125C109.687 83.2195 109.584 83.2163 109.456 83.2029C109.326 83.1768 109.209 83.1558 109.106 83.14C109.143 83.264 109.175 83.4012 109.202 83.5517C109.241 83.701 109.268 83.8578 109.284 84.022C109.353 84.7676 109.164 85.4673 108.715 86.1212C108.265 86.7623 107.559 87.1853 106.596 87.3899C106.245 87.4483 105.984 87.5173 105.813 87.597C105.653 87.6629 105.58 87.7654 105.593 87.9044C105.605 88.0307 105.689 88.1184 105.847 88.1675C106.003 88.2038 106.203 88.2234 106.445 88.2263C107.222 88.2174 107.914 88.2611 108.522 88.3572C109.131 88.4533 109.614 88.6503 109.974 88.9482C110.347 89.2575 110.562 89.7218 110.62 90.341C110.687 91.0613 110.53 91.7006 110.149 92.2589C109.782 92.8286 109.258 93.2919 108.577 93.6487C107.897 94.0054 107.139 94.2228 106.305 94.3007ZM106.234 85.7603C106.815 85.7059 107.255 85.5055 107.554 85.1588C107.853 84.8122 107.979 84.3862 107.932 83.8807C107.919 83.7417 107.893 83.6038 107.855 83.4672C107.816 83.3179 107.779 83.1939 107.744 83.0952C107.536 83.0509 107.336 83.0313 107.146 83.0363C106.954 83.0288 106.769 83.0333 106.592 83.0498C105.923 83.1124 105.41 83.2878 105.055 83.5759C104.699 83.8641 104.542 84.2293 104.583 84.6716C104.62 85.0634 104.787 85.3537 105.085 85.5425C105.383 85.7314 105.766 85.804 106.234 85.7603ZM114.792 88.4788C113.832 88.5685 113.055 88.3671 112.461 87.8745C111.878 87.368 111.54 86.622 111.448 85.6363C111.364 84.739 111.484 83.9056 111.807 83.1361C112.131 82.3665 112.601 81.7362 113.218 81.2451C113.846 80.7403 114.558 80.4506 115.355 80.3762C116.113 80.3054 116.737 80.4382 117.227 80.7748C117.717 81.0988 117.99 81.5704 118.048 82.1896C118.094 82.6824 117.985 83.1515 117.721 83.5969C117.456 84.0423 117.083 84.4149 116.601 84.7149C116.118 85.0023 115.567 85.1749 114.948 85.2327C114.19 85.3036 113.555 85.1909 113.043 84.8945C113.109 85.4747 113.349 85.9239 113.761 86.2423C114.186 86.5596 114.702 86.6898 115.308 86.6332C115.675 86.5989 116.042 86.5009 116.409 86.3391C116.788 86.1635 117.105 85.9489 117.362 85.6955C117.525 85.5273 117.682 85.4361 117.834 85.422C117.96 85.4101 118.065 85.4449 118.15 85.5263C118.245 85.5939 118.299 85.6908 118.311 85.8172C118.337 86.0952 118.131 86.4841 117.693 86.9839C116.922 87.8718 115.955 88.3701 114.792 88.4788ZM114.66 83.9976C115.115 83.9551 115.486 83.8249 115.771 83.607C116.057 83.3891 116.186 83.1348 116.159 82.8442C116.136 82.6041 116.018 82.4303 115.804 82.3228C115.589 82.2027 115.304 82.1592 114.951 82.1922C114.483 82.2359 114.084 82.4007 113.754 82.6865C113.435 82.9585 113.221 83.3227 113.11 83.7792C113.298 83.8764 113.534 83.9436 113.818 83.9808C114.101 84.018 114.382 84.0236 114.66 83.9976ZM122.821 87.7284C122.051 87.8005 121.471 87.5997 121.083 87.1261C120.706 86.6387 120.479 85.9906 120.404 85.1818C120.376 84.8912 120.363 84.6056 120.362 84.3253C120.374 84.0437 120.386 83.7621 120.398 83.4806C120.41 83.199 120.422 82.9238 120.435 82.6549C120.448 82.3859 120.456 82.1302 120.459 81.8878C120.201 81.9884 119.939 82.0511 119.674 82.0759C119.396 82.1019 119.246 82.0012 119.225 81.7737C119.202 81.5336 119.283 81.2329 119.465 80.8716C119.647 80.4977 119.88 80.1254 120.164 79.7547C120.461 79.3827 120.757 79.0683 121.051 78.8113C121.357 78.5405 121.624 78.3945 121.852 78.3732C122.13 78.3472 122.291 78.5743 122.336 79.0546C122.348 79.1809 122.347 79.3148 122.335 79.4562C122.334 79.5837 122.328 79.7182 122.316 79.8595C122.551 79.7866 122.787 79.7199 123.023 79.6595C123.273 79.598 123.511 79.5566 123.738 79.5354C124.029 79.5082 124.255 79.5381 124.416 79.625C124.59 79.7107 124.69 79.8989 124.717 80.1896C124.746 80.4929 124.698 80.8033 124.575 81.1207C124.464 81.437 124.321 81.6034 124.144 81.6199C124.106 81.6235 124.042 81.6231 123.952 81.6187C123.863 81.6143 123.753 81.6054 123.625 81.592C123.457 81.5694 123.245 81.551 122.989 81.5367C122.732 81.5224 122.427 81.5318 122.073 81.5648C122.022 81.9649 121.977 82.3769 121.94 82.801C121.915 83.2113 121.918 83.5807 121.948 83.9093C122.017 84.6423 122.247 85.1243 122.638 85.3554C123.029 85.5866 123.572 85.6696 124.267 85.6047C124.482 85.5846 124.637 85.6084 124.733 85.6759C124.827 85.7308 124.883 85.8468 124.899 86.0237C124.938 86.4407 124.757 86.8146 124.354 87.1454C123.952 87.4762 123.441 87.6706 122.821 87.7284ZM126.992 87.3005C126.815 87.317 126.659 87.2869 126.525 87.2103C126.391 87.1463 126.33 87.0436 126.343 86.9022C126.438 85.8735 126.5 84.8352 126.53 83.7871C126.571 82.7252 126.542 81.6636 126.442 80.602C126.355 79.6669 126.244 78.8232 126.11 78.0708C125.976 77.3185 125.706 76.6108 125.3 75.9476C125.224 75.8145 125.162 75.6992 125.115 75.6016C125.067 75.5041 125.039 75.4111 125.031 75.3226C125.009 75.0825 125.126 74.8357 125.383 74.5823C125.652 74.3277 125.945 74.1856 126.261 74.1561C126.703 74.1147 127.032 74.3644 127.248 74.9051C127.465 75.4458 127.624 76.2595 127.725 77.3463C127.847 78.6479 127.877 79.7923 127.817 80.7796C127.755 81.7541 127.69 82.4995 127.624 83.0156L127.703 83.0464C127.893 82.353 128.138 81.6992 128.438 81.0848C128.75 80.4692 129.13 79.9621 129.577 79.5634C130.024 79.1647 130.563 78.9358 131.195 78.8768C131.865 78.8142 132.389 78.9691 132.768 79.3416C133.16 79.7129 133.384 80.1956 133.439 80.7895C133.463 81.0423 133.46 81.291 133.432 81.5359C133.403 81.7681 133.367 81.9945 133.324 82.2153C133.279 82.4234 133.242 82.6372 133.212 82.8567C133.18 83.0636 133.174 83.2745 133.194 83.4894C133.231 83.8811 133.356 84.1945 133.569 84.4295C133.781 84.6519 134.05 84.7989 134.375 84.8705C134.466 84.8875 134.533 84.9195 134.575 84.9665C134.629 84.9997 134.662 85.0731 134.672 85.1869C134.683 85.3006 134.66 85.4684 134.605 85.6903C134.549 85.9123 134.429 86.1274 134.244 86.3359C134.059 86.5317 133.77 86.6479 133.378 86.6845C132.873 86.7318 132.464 86.5915 132.153 86.2636C131.841 85.9231 131.658 85.4685 131.605 84.8999C131.579 84.6218 131.578 84.3351 131.601 84.0398C131.637 83.7432 131.681 83.4587 131.732 83.1862C131.77 82.9149 131.804 82.6632 131.833 82.431C131.861 82.1862 131.868 81.9816 131.852 81.8174C131.798 81.236 131.468 80.9737 130.861 81.0304C130.356 81.0777 129.924 81.3028 129.567 81.7059C129.221 82.0952 128.935 82.5808 128.709 83.1628C128.494 83.731 128.325 84.314 128.203 84.9119L128.263 85.5564C128.307 86.0239 128.204 86.4224 127.954 86.7516C127.717 87.0797 127.396 87.2627 126.992 87.3005ZM138.987 86.2178C138.026 86.3075 137.249 86.1061 136.655 85.6135C136.072 85.107 135.735 84.361 135.643 83.3753C135.559 82.478 135.678 81.6446 136.002 80.8751C136.325 80.1055 136.795 79.4752 137.412 78.9841C138.04 78.4793 138.753 78.1896 139.549 78.1152C140.307 78.0444 140.931 78.1772 141.422 78.5138C141.911 78.8378 142.184 79.3094 142.242 79.9286C142.288 80.4214 142.179 80.8905 141.915 81.3359C141.651 81.7813 141.278 82.1539 140.796 82.4539C140.313 82.7413 139.762 82.9139 139.142 82.9717C138.384 83.0426 137.749 82.9299 137.237 82.6335C137.304 83.2137 137.543 83.6629 137.956 83.9813C138.38 84.2986 138.896 84.4288 139.503 84.3722C139.869 84.3379 140.236 84.2399 140.603 84.0781C140.982 83.9025 141.3 83.6879 141.557 83.4345C141.719 83.2663 141.877 83.1751 142.028 83.161C142.155 83.1491 142.26 83.1839 142.344 83.2653C142.439 83.3329 142.493 83.4298 142.505 83.5562C142.531 83.8342 142.325 84.2231 141.887 84.7229C141.116 85.6108 140.149 86.1091 138.987 86.2178ZM138.855 81.7366C139.31 81.6941 139.68 81.5639 139.966 81.346C140.251 81.1281 140.38 80.8738 140.353 80.5832C140.331 80.3431 140.213 80.1693 139.999 80.0618C139.783 79.9417 139.499 79.8982 139.145 79.9312C138.677 79.9749 138.279 80.1397 137.948 80.4255C137.63 80.6975 137.415 81.0617 137.305 81.5182C137.492 81.6154 137.728 81.6826 138.012 81.7198C138.296 81.757 138.577 81.7626 138.855 81.7366ZM145.382 85.5819C145.18 85.6008 145.012 85.5782 144.879 85.5142C144.759 85.4616 144.71 85.3514 144.733 85.1836C144.821 84.6272 144.884 84.0669 144.92 83.5026C144.968 82.9245 144.968 82.3764 144.919 81.8582C144.857 81.1885 144.767 80.7061 144.65 80.411C144.545 80.1022 144.417 79.8974 144.268 79.7967C144.117 79.6833 143.937 79.6045 143.729 79.5602C143.637 79.5305 143.551 79.4877 143.469 79.4316C143.4 79.3743 143.36 79.2888 143.349 79.175C143.333 78.9981 143.384 78.7957 143.503 78.5679C143.622 78.3401 143.801 78.1386 144.039 77.9633C144.276 77.7754 144.559 77.6661 144.888 77.6354C145.318 77.5952 145.629 77.7191 145.821 78.0071C146.026 78.2812 146.15 78.6583 146.195 79.1386C146.375 78.6118 146.616 78.1878 146.917 77.8664C147.23 77.5312 147.639 77.34 148.145 77.2928C148.486 77.2609 148.777 77.3102 149.019 77.4405C149.261 77.5709 149.397 77.8067 149.429 78.1479C149.461 78.4891 149.378 78.822 149.179 79.1465C148.991 79.4573 148.783 79.6233 148.556 79.6445C148.518 79.6481 148.473 79.6459 148.421 79.638C148.37 79.6301 148.322 79.6026 148.28 79.5556C148.097 79.3687 147.885 79.2865 147.645 79.309C147.278 79.3432 146.979 79.6135 146.745 80.1196C146.512 80.6258 146.423 81.3035 146.477 82.1525C146.519 82.4672 146.555 82.7889 146.586 83.1175C146.629 83.4448 146.658 83.6844 146.672 83.836C146.716 84.3036 146.619 84.7014 146.382 85.0295C146.158 85.3564 145.824 85.5405 145.382 85.5819Z" fill="#D17E00" fill-opacity="0.39"/>
<defs>
<filter id="filter0_d_43_24" x="18.9344" y="30.5212" width="137.373" height="99.9148" filterUnits="userSpaceOnUse" color-interpolation-filters="sRGB">
<feFlood flood-opacity="0" result="BackgroundImageFix"/>
<feColorMatrix in="SourceAlpha" type="matrix" values="0 0 0 0 0 0 0 0 0 0 0 0 0 0 0 0 0 0 127 0" result="hardAlpha"/>
<feOffset dy="3.30698"/>
<feGaussianBlur stdDeviation="1.65349"/>
<feComposite in2="hardAlpha" operator="out"/>
<feColorMatrix type="matrix" values="0 0 0 0 0 0 0 0 0 0 0 0 0 0 0 0 0 0 0.25 0"/>
<feBlend mode="normal" in2="BackgroundImageFix" result="effect1_dropShadow_43_24"/>
<feBlend mode="normal" in="SourceGraphic" in2="effect1_dropShadow_43_24" result="shape"/>
</filter>
</defs>
</svg>
