<svg width="119" height="102" viewBox="0 0 119 102" fill="none" xmlns="http://www.w3.org/2000/svg">
<g filter="url(#filter0_d_8_2)">
<path d="M99.7715 73.4975C99.6522 72.9255 99.4614 72.6703 99.521 72.0912C99.5807 71.5121 99.7977 71.2852 99.6451 70.9094C99.4924 70.5335 99.2229 70.5643 99.0178 70.2665C98.6553 69.737 98.9916 68.9428 99.1132 68.5954C99.6308 67.1465 98.9034 66.6832 98.8533 62.9227C98.8318 61.3131 98.9702 61.7007 98.9368 60.2612C98.8914 58.3373 98.6506 57.7794 98.517 55.1227C98.5051 54.858 98.517 54.9124 98.4336 53.2318C98.3477 51.2866 98.3453 51.296 98.3501 51.1613C98.3978 50.0386 98.5886 49.7171 98.3501 49.034C98.207 48.6015 98.0663 48.5613 98.009 48.143C97.9232 47.5237 98.1951 47.3346 98.2475 46.6161C98.3048 45.8432 98.009 45.8526 98.009 44.8575C98.009 44.0988 98.1831 44.0444 98.0711 43.541C97.9494 42.9879 97.6942 42.8319 97.7419 42.3734C97.7896 41.9148 98.0567 41.8297 97.9804 41.5768C97.8612 41.201 97.2411 41.3097 96.9788 40.8488C96.8581 40.5874 96.8461 40.2893 96.9454 40.0192C97.1243 39.3739 97.6394 39.3361 97.7801 38.7925C97.8731 38.4403 97.6632 38.4285 97.5416 37.665C97.4128 36.8283 97.6275 36.5801 97.4319 35.8427C97.363 35.5899 97.2654 35.3457 97.141 35.1147C96.5591 33.9565 96.6425 31.7914 96.664 30.9051C96.7379 27.0996 96.0415 25.1331 96.0964 23.1193C96.1271 22.6849 96.0877 22.2484 95.9795 21.8264C95.8102 21.2048 95.6194 21.1669 95.5813 20.6659C95.5503 20.2097 95.691 19.9568 95.5121 19.5715C95.4497 19.4116 95.3431 19.2723 95.2044 19.1697C94.966 19.0066 94.7036 19.0279 94.2696 19.0704C93.597 19.1366 93.2632 19.1697 93.1654 19.191C91.973 19.451 90.6875 18.9546 88.2263 19.0704C86.7334 19.1413 86.1348 19.373 84.9877 19.1815C84.6972 19.1192 84.3999 19.093 84.1029 19.1035C83.211 19.1461 82.9343 19.5242 82.1616 19.6353C81.6703 19.7039 81.7943 19.5502 80.5566 19.4368C79.667 19.3517 79.0136 19.2926 78.217 19.4699C77.5779 19.6093 77.5874 19.7393 77.1129 19.7677C76.4165 19.8079 76.1589 19.5455 75.4792 19.5621C75.1072 19.5621 75.0547 19.685 74.2463 19.8977C71.8065 20.543 71.3987 20.524 71.0267 20.3704C70.7882 20.2664 70.5497 20.0986 70.1896 20.134C69.8295 20.1695 69.7412 20.4106 69.3859 20.5311C68.8469 20.7179 68.6084 20.316 67.7165 20.2215C67.3278 20.1813 67.4589 20.2688 66.1735 20.3657C65.6742 20.425 65.1712 20.4471 64.6686 20.4319C64.1607 20.368 63.8578 20.231 63.4643 20.3988C63.2425 20.4933 63.2019 20.602 62.9873 20.6351C62.6153 20.706 62.4078 20.5028 62.0882 20.4177C61.3561 20.2239 61.0937 20.9589 60.1231 20.9306C59.4267 20.9093 59.4076 20.5713 58.778 20.6233C58.0315 20.6824 57.8384 21.1599 57.2803 21.0322C56.8439 20.9353 56.6889 20.5855 56.3478 20.6753C56.1647 20.7429 55.9951 20.8421 55.847 20.9684C55.0695 20.94 52.7157 20.907 51.7665 21.0866C51.6115 21.1149 51.2895 21.1835 50.8126 21.2379C50.3356 21.2922 50.2855 21.2686 49.5152 21.3253C48.888 21.3726 48.5231 21.4057 48.027 21.4388C47.4833 21.4766 47.2114 21.4931 47.0898 21.4955C46.1358 21.4955 45.8974 21.304 45.2463 21.356C44.8237 21.3938 44.4132 21.516 44.0395 21.7153C43.3241 21.8217 42.7446 21.8949 42.2986 21.9517C41.7453 22.0179 41.4806 22.0391 41.1968 22.0533C40.7484 22.0769 40.4813 22.0533 40.1093 22.0533L38.0917 22.1053H36.1838C35.3706 22.5308 34.772 22.5378 34.3737 22.4622C33.7822 22.3535 33.7035 22.0793 33.1336 22.0533C32.4181 22.0226 32.3155 22.4338 31.4785 22.4622C30.9132 22.4835 30.8107 22.3015 30.286 22.3606C29.8721 22.4186 29.4803 22.5814 29.1484 22.8333L27.2882 23.0389C26.4235 23.4027 25.4894 23.5761 24.5504 23.5471C24.149 23.5332 23.7497 23.4817 23.358 23.3935L21.0828 23.3415L20.7227 23.9064L19.6376 24.4169C19.1845 24.3413 18.6431 24.2538 18.035 24.1617C16.8282 23.9797 16.4967 23.9537 16.0698 24.06C15.8535 24.1207 15.6428 24.1998 15.4402 24.2964C15.3622 24.3225 15.2825 24.3439 15.2017 24.3602C14.7057 24.4547 13.9092 24.2278 13.4823 24.476C13.208 24.632 13.1412 24.9487 13.0053 25.568C12.8598 26.2606 13.0387 26.3433 12.8932 27.1753C12.8495 27.5542 12.7515 27.9251 12.6022 28.2767C12.4568 28.5958 12.3351 28.7164 12.3113 28.9858C12.3 29.2851 12.3917 29.5793 12.5712 29.8202C12.8097 30.1818 12.9099 30.9192 13.1221 32.3918C13.5061 35.0438 12.7573 35.7883 13.2724 38.3717C13.4417 39.225 13.6587 39.8277 13.8352 41.2081C13.9664 42.2221 13.9926 43.0163 13.9974 43.2314C14.026 44.2453 13.9568 44.6377 13.8615 46.765C13.8257 47.5922 13.8066 48.0082 13.8042 48.3108C13.778 50.152 14.057 51.0077 14.2812 52.8229C14.3694 53.5131 14.4386 54.9289 14.5721 57.7629C14.593 58.9704 14.7127 60.1743 14.9299 61.3627C15.0688 62.0817 15.2504 62.7921 15.4736 63.4899C15.4736 64.3905 15.4569 65.291 15.4498 66.1916L15.8385 66.8203C16.4276 69.6566 16.3369 71.2024 16.1295 72.1053C15.9631 72.7558 15.9083 73.4294 15.9673 74.0979C16.0341 74.8306 16.2058 75.0173 16.356 75.7382C16.6947 77.2391 16.2892 77.7213 16.4538 79.5318C16.5177 80.2314 16.6462 80.9237 16.8378 81.6L17.9229 81.5244C18.9985 81.4558 21.1663 81.3306 24.3358 81.2667C25.7953 81.2384 27.2525 81.1604 28.7144 81.1698C30.1238 81.1698 30.8393 81.2313 31.6335 80.9146C32.0017 80.7499 32.3966 80.6514 32.7997 80.6238C33.4174 80.586 33.4531 80.7609 33.9683 80.7538C35.1058 80.7326 35.6925 79.8627 36.3364 80.1747C36.4938 80.2504 36.5439 80.3449 36.7514 80.3875C37.0972 80.4584 37.3214 80.2669 37.6648 80.1511C38.1108 79.988 38.509 80.0424 39.308 80.1511C40.0234 80.2433 40.0234 80.3615 40.4766 80.3591C40.8057 80.3591 41.1467 80.2598 41.8168 80.0589C42.7469 79.7824 42.995 79.6311 43.4052 79.7375C43.7176 79.8202 43.7057 79.9408 43.9895 79.9951C44.5237 80.0968 44.8766 79.7327 45.387 79.5106C45.6875 79.3782 45.79 79.4066 47.6884 79.4491C48.8069 79.4728 49.3578 79.4869 49.9564 79.4798C50.7315 79.468 51.3015 79.4609 52.0002 79.3853C53.3381 79.2388 53.3739 79.0331 54.5735 78.87C55.9186 78.6857 56.1356 78.9078 57.6738 78.7708C58.6755 78.6786 58.5944 78.584 60.0754 78.3571C63.3927 77.8442 63.9818 78.2933 65.3936 77.8088C65.7772 77.6277 66.2088 77.5714 66.6266 77.648C67.1727 77.7899 67.3802 78.194 67.8572 78.1397C68.1267 78.1089 68.1577 77.9695 68.5083 77.8419C68.8992 77.7149 69.3184 77.7001 69.7174 77.7993C69.9988 77.8537 72.4958 77.7213 77.4921 77.4566C80.4421 77.3006 88.6055 76.7664 99.6284 75.7359C99.864 75.0133 99.9132 74.2438 99.7715 73.4975ZM15.9411 29.5436C15.9411 29.4034 15.983 29.2663 16.0616 29.1497C16.1402 29.0331 16.252 28.9422 16.3827 28.8885C16.5135 28.8348 16.6573 28.8208 16.7961 28.8482C16.9349 28.8755 17.0624 28.9431 17.1624 29.0422C17.2625 29.1414 17.3306 29.2677 17.3582 29.4053C17.3858 29.5428 17.3717 29.6854 17.3175 29.815C17.2634 29.9445 17.1717 30.0553 17.054 30.1332C16.9363 30.2111 16.798 30.2527 16.6565 30.2527C16.4668 30.2527 16.2848 30.178 16.1506 30.045C16.0164 29.912 15.9411 29.7317 15.9411 29.5436ZM16.418 34.5072C16.418 34.367 16.46 34.2299 16.5386 34.1133C16.6172 33.9967 16.729 33.9058 16.8597 33.8521C16.9904 33.7984 17.1343 33.7844 17.2731 33.8118C17.4119 33.8391 17.5393 33.9067 17.6394 34.0058C17.7395 34.105 17.8076 34.2313 17.8352 34.3689C17.8628 34.5064 17.8486 34.649 17.7945 34.7786C17.7403 34.9081 17.6486 35.0189 17.531 35.0968C17.4133 35.1747 17.275 35.2163 17.1335 35.2163C16.9437 35.2163 16.7618 35.1416 16.6276 35.0086C16.4934 34.8756 16.418 34.6953 16.418 34.5072ZM16.895 39.1896C16.895 39.0493 16.937 38.9122 17.0156 38.7956C17.0942 38.679 17.2059 38.5881 17.3367 38.5344C17.4674 38.4808 17.6113 38.4667 17.75 38.4941C17.8888 38.5215 18.0163 38.589 18.1164 38.6882C18.2164 38.7873 18.2846 38.9137 18.3122 39.0512C18.3398 39.1888 18.3256 39.3313 18.2715 39.4609C18.2173 39.5905 18.1256 39.7012 18.0079 39.7791C17.8903 39.8571 17.752 39.8986 17.6105 39.8986C17.5153 39.9005 17.4207 39.8836 17.3323 39.8488C17.2438 39.814 17.1632 39.7621 17.0953 39.696C17.0273 39.63 16.9733 39.5512 16.9365 39.4642C16.8996 39.3773 16.8807 39.2839 16.8807 39.1896H16.895ZM17.372 44.1532C17.372 44.0129 17.4139 43.8758 17.4926 43.7592C17.5712 43.6426 17.6829 43.5517 17.8136 43.4981C17.9444 43.4444 18.0882 43.4303 18.227 43.4577C18.3658 43.4851 18.4933 43.5526 18.5933 43.6518C18.6934 43.7509 18.7615 43.8773 18.7891 44.0148C18.8168 44.1524 18.8026 44.295 18.7484 44.4245C18.6943 44.5541 18.6026 44.6648 18.4849 44.7427C18.3673 44.8207 18.2289 44.8622 18.0874 44.8622C17.9923 44.8641 17.8977 44.8472 17.8092 44.8124C17.7208 44.7776 17.6402 44.7257 17.5723 44.6596C17.5043 44.5936 17.4503 44.5148 17.4135 44.4278C17.3766 44.3409 17.3576 44.2475 17.3577 44.1532H17.372ZM17.6105 48.4786C17.6105 48.3383 17.6524 48.2013 17.731 48.0846C17.8097 47.968 17.9214 47.8771 18.0521 47.8235C18.1829 47.7698 18.3267 47.7558 18.4655 47.7831C18.6043 47.8105 18.7318 47.878 18.8318 47.9772C18.9319 48.0764 19 48.2027 19.0276 48.3403C19.0552 48.4778 19.0411 48.6204 18.9869 48.7499C18.9328 48.8795 18.8411 48.9903 18.7234 49.0682C18.6058 49.1461 18.4674 49.1877 18.3259 49.1877C18.2306 49.1899 18.1357 49.1732 18.047 49.1385C17.9583 49.1039 17.8774 49.052 17.8092 48.9859C17.741 48.9199 17.6868 48.841 17.6498 48.7538C17.6128 48.6667 17.5937 48.5731 17.5938 48.4786H17.6105ZM18.0874 53.4422C18.0874 53.302 18.1294 53.1649 18.208 53.0482C18.2866 52.9316 18.3984 52.8408 18.5291 52.7871C18.6598 52.7334 18.8037 52.7194 18.9425 52.7467C19.0813 52.7741 19.2087 52.8416 19.3088 52.9408C19.4089 53.04 19.477 53.1663 19.5046 53.3039C19.5322 53.4414 19.518 53.584 19.4639 53.7136C19.4097 53.8431 19.318 53.9539 19.2004 54.0318C19.0827 54.1097 18.9444 54.1513 18.8029 54.1513C18.7073 54.1538 18.6123 54.1373 18.5232 54.1028C18.4342 54.0683 18.3531 54.0165 18.2846 53.9504C18.2161 53.8843 18.1617 53.8053 18.1246 53.718C18.0874 53.6307 18.0683 53.5369 18.0684 53.4422H18.0874ZM18.5644 58.1245C18.5644 57.9843 18.6064 57.8472 18.685 57.7306C18.7636 57.614 18.8753 57.5231 19.0061 57.4694C19.1368 57.4157 19.2807 57.4017 19.4194 57.4291C19.5582 57.4564 19.6857 57.524 19.7858 57.6231C19.8858 57.7223 19.954 57.8486 19.9816 57.9862C20.0092 58.1237 19.995 58.2663 19.9409 58.3959C19.8867 58.5255 19.795 58.6362 19.6774 58.7141C19.5597 58.792 19.4214 58.8336 19.2799 58.8336C19.1843 58.8361 19.0892 58.8197 19.0002 58.7852C18.9112 58.7507 18.8301 58.6988 18.7616 58.6327C18.6931 58.5666 18.6387 58.4876 18.6016 58.4003C18.5644 58.313 18.5453 58.2193 18.5453 58.1245H18.5644ZM19.0414 63.0881C19.0414 62.9479 19.0833 62.8108 19.162 62.6942C19.2406 62.5776 19.3523 62.4867 19.483 62.433C19.6138 62.3794 19.7576 62.3653 19.8964 62.3927C20.0352 62.42 20.1627 62.4876 20.2627 62.5867C20.3628 62.6859 20.4309 62.8122 20.4586 62.9498C20.4862 63.0873 20.472 63.2299 20.4178 63.3595C20.3637 63.4891 20.272 63.5998 20.1543 63.6777C20.0367 63.7556 19.8983 63.7972 19.7568 63.7972C19.6611 63.8001 19.5657 63.7838 19.4765 63.7495C19.3872 63.7151 19.3057 63.6633 19.237 63.5972C19.1683 63.5311 19.1136 63.4519 19.0764 63.3645C19.0391 63.2771 19.0199 63.1831 19.0199 63.0881H19.0414ZM19.2799 68.0517C19.2799 67.9115 19.3218 67.7744 19.4004 67.6578C19.4791 67.5412 19.5908 67.4503 19.7215 67.3966C19.8523 67.343 19.9961 67.3289 20.1349 67.3563C20.2737 67.3836 20.4012 67.4512 20.5012 67.5503C20.6013 67.6495 20.6694 67.7758 20.697 67.9134C20.7246 68.0509 20.7105 68.1935 20.6563 68.3231C20.6022 68.4527 20.5105 68.5634 20.3928 68.6413C20.2752 68.7192 20.1368 68.7608 19.9953 68.7608C19.8998 68.7637 19.8046 68.7475 19.7155 68.7133C19.6264 68.6791 19.545 68.6275 19.4763 68.5616C19.4076 68.4958 19.353 68.4169 19.3155 68.3297C19.2781 68.2426 19.2587 68.1488 19.2584 68.0541L19.2799 68.0517ZM19.7568 72.7341C19.7568 72.5938 19.7988 72.4567 19.8774 72.3401C19.956 72.2235 20.0678 72.1326 20.1985 72.079C20.3292 72.0253 20.4731 72.0113 20.6119 72.0386C20.7507 72.066 20.8781 72.1335 20.9782 72.2327C21.0783 72.3318 21.1464 72.4582 21.174 72.5957C21.2016 72.7333 21.1875 72.8759 21.1333 73.0054C21.0791 73.135 20.9874 73.2457 20.8698 73.3237C20.7521 73.4016 20.6138 73.4432 20.4723 73.4432C20.3766 73.4463 20.2811 73.4304 20.1917 73.3963C20.1023 73.3623 20.0207 73.3107 19.9518 73.2448C19.8828 73.1789 19.8279 73.1 19.7903 73.0126C19.7528 72.9253 19.7333 72.8314 19.733 72.7364L19.7568 72.7341ZM20.9493 78.4068C20.8078 78.4068 20.6694 78.3652 20.5518 78.2873C20.4341 78.2093 20.3424 78.0986 20.2883 77.969C20.2341 77.8395 20.22 77.6969 20.2476 77.5593C20.2752 77.4218 20.3433 77.2954 20.4434 77.1963C20.5434 77.0971 20.6709 77.0296 20.8097 77.0022C20.9485 76.9749 21.0923 76.9889 21.2231 77.0426C21.3538 77.0962 21.4655 77.1871 21.5442 77.3037C21.6228 77.4203 21.6647 77.5574 21.6647 77.6977C21.6648 77.793 21.6455 77.8874 21.6079 77.9752C21.5703 78.0629 21.5152 78.1423 21.446 78.2085C21.3768 78.2747 21.2948 78.3264 21.2049 78.3604C21.115 78.3945 21.0192 78.4103 20.923 78.4068H20.9493Z" fill="#E0CAA5"/>
</g>
<path d="M86.8486 10.8777C85.3093 11.8956 83.8267 12.9937 82.4072 14.1674C74.3539 20.8202 70.3297 28.2403 67.8534 32.9178C65.2305 37.8782 63.1749 43.1086 61.7242 48.5135C61.0465 49.0349 60.4671 49.669 60.0123 50.3869C59.7541 50.796 59.5377 51.2291 59.3661 51.68C58.8979 50.6201 58.724 49.4572 58.8621 48.3098L63.1371 39.0282C62.9368 37.8262 62.877 36.6057 62.9587 35.3904C63.006 34.2772 63.203 33.175 63.5446 32.1125C63.8341 31.2404 64.2257 30.4043 64.7116 29.621C64.7139 30.2823 64.7728 30.9423 64.8876 31.5939C64.9479 31.9444 65.0203 32.2712 65.0998 32.5744C65.1119 31.7355 65.1812 30.8984 65.3072 30.0686C65.5576 28.4797 65.9987 26.9255 66.6213 25.4385C67.4545 23.3392 68.5228 21.3375 69.8064 19.4702C71.0868 17.5305 71.9307 16.6518 72.4274 16.1734C73.0482 15.5681 73.7183 15.0137 74.431 14.5156C74.111 15.203 73.9043 15.9361 73.8186 16.6873C73.7664 17.1411 73.7591 17.5988 73.7969 18.0539C74.3354 17.0196 74.9605 16.0309 75.6656 15.0982C76.6758 13.7577 80.8568 8.38858 88.1072 7.08361C89.7248 6.79609 91.3748 6.72676 93.0115 6.87756C92.6008 7.30576 92.219 7.75988 91.8686 8.237C90.4605 10.1743 90.5135 11.2543 89.021 13.9921C88.5567 14.8842 88.0052 15.7297 87.3742 16.5168C86.8151 17.2132 86.1804 17.8477 85.4814 18.4092C84.3651 19.2926 83.7189 19.4607 81.6356 20.5809C81.028 20.9078 80.1383 21.398 79.0774 22.047C79.8586 21.8575 80.6856 21.6254 81.5512 21.3365C82.9423 20.8741 84.297 20.312 85.6044 19.6549C85.303 20.2896 84.8642 21.1612 84.2734 22.1678C82.658 24.9269 81.2522 27.3237 78.6675 28.6997C77.8696 29.0986 77.0502 29.4544 76.2129 29.7655C74.3901 30.476 73.1483 30.7578 73.1628 30.8099C73.1772 30.862 74.8506 30.5731 76.7217 30.0023C77.9508 29.6321 79.1542 29.1835 80.3239 28.6595C79.3253 30.4653 78.0639 32.1185 76.5794 33.5667C75.7302 34.434 74.7829 35.2032 73.7559 35.8593C72.1911 36.828 70.496 37.4532 69.2567 37.9103C68.5131 38.1746 67.7949 38.5036 67.1107 38.8932C66.6941 39.1319 66.2916 39.3937 65.9052 39.6771C66.942 36.8227 68.1937 34.048 69.6497 31.376C70.9734 28.9508 72.1404 27.2029 73.047 25.8482C74.6143 23.5154 76.4227 20.8225 79.2124 17.7721C81.5284 15.2403 84.0854 12.9317 86.8486 10.8777Z" fill="#F4F6D3"/>
<defs>
<filter id="filter0_d_8_2" x="8.31036" y="19.04" width="95.5402" height="70.56" filterUnits="userSpaceOnUse" color-interpolation-filters="sRGB">
<feFlood flood-opacity="0" result="BackgroundImageFix"/>
<feColorMatrix in="SourceAlpha" type="matrix" values="0 0 0 0 0 0 0 0 0 0 0 0 0 0 0 0 0 0 127 0" result="hardAlpha"/>
<feOffset dy="4"/>
<feGaussianBlur stdDeviation="2"/>
<feComposite in2="hardAlpha" operator="out"/>
<feColorMatrix type="matrix" values="0 0 0 0 0 0 0 0 0 0 0 0 0 0 0 0 0 0 0.25 0"/>
<feBlend mode="normal" in2="BackgroundImageFix" result="effect1_dropShadow_8_2"/>
<feBlend mode="normal" in="SourceGraphic" in2="effect1_dropShadow_8_2" result="shape"/>
</filter>
</defs>
</svg>
