<svg id="Layer_1" data-name="Layer 1" xmlns="http://www.w3.org/2000/svg" viewBox="0 0 192 192"><defs><style>.cls-1{fill:none;}.cls-2{fill:#e41e25;}</style></defs><path class="cls-1" d="M189,132V324H381V132Zm103.44,66,19.11-15.58a4.66,4.66,0,0,1,6.06,7.06l-19.88,15.74a4.5,4.5,0,0,1-5.29-7.22Zm-42.3-6.84a4.65,4.65,0,0,1,4.62-8.07l21.51,13.43a4.51,4.51,0,0,1-5,7.42Z" transform="translate(-189.02 -131.98)"/><path class="cls-2" d="M285,150a78,78,0,1,0,78,78A78,78,0,0,0,285,150Zm7.44,48,19.11-15.58a4.66,4.66,0,0,1,6.06,7.06l-19.88,15.74a4.5,4.5,0,0,1-5.29-7.22ZM321,213a9,9,0,1,1-9-9A9,9,0,0,1,321,213ZM248.68,184.7a4.72,4.72,0,0,1,6.1-1.65l21.51,13.43a4.51,4.51,0,0,1-5,7.42l-21.1-12.78A4.71,4.71,0,0,1,248.68,184.7ZM267,213a9,9,0,1,1-9-9A9,9,0,0,1,267,213Zm52.2,56.18a5.94,5.94,0,0,1-8.17-2.18A30.08,30.08,0,0,0,259,267a6,6,0,1,1-10.82-5.19,5.5,5.5,0,0,1,.47-.81,42,42,0,0,1,72.75,0A6,6,0,0,1,319.22,269.16Z" transform="translate(-189.02 -131.98)"/></svg>