<svg width="139" height="101" viewBox="0 0 139 101" fill="none" xmlns="http://www.w3.org/2000/svg">
<g filter="url(#filter0_d_0_1)">
<path d="M134.882 81.7382C134.704 80.8851 134.419 80.5044 134.508 79.6407C134.597 78.7771 134.921 78.4387 134.693 77.8782C134.465 77.3177 134.063 77.3636 133.756 76.9194C133.215 76.1298 133.717 74.9454 133.899 74.4272C134.672 72.2663 133.585 71.5754 133.51 65.967C133.478 63.5665 133.685 64.1446 133.635 61.9978C133.567 59.1284 133.208 58.2965 133.008 54.3343C132.99 53.9395 133.008 54.0206 132.883 51.5143C132.755 48.6131 132.752 48.6272 132.759 48.4263C132.83 46.7519 133.115 46.2725 132.759 45.2538C132.545 44.6087 132.335 44.5487 132.249 43.9248C132.121 43.0012 132.527 42.7192 132.606 41.6476C132.691 40.4949 132.249 40.509 132.249 39.025C132.249 37.8934 132.509 37.8123 132.342 37.0615C132.16 36.2366 131.779 36.004 131.85 35.3201C131.922 34.6363 132.321 34.5094 132.207 34.1322C132.028 33.5717 131.102 33.7338 130.71 33.0465C130.53 32.6565 130.512 32.2121 130.661 31.8092C130.928 30.8468 131.697 30.7904 131.907 29.9797C132.046 29.4544 131.733 29.4368 131.551 28.2982C131.359 27.0503 131.679 26.6802 131.387 25.5804C131.284 25.2034 131.139 24.8392 130.953 24.4947C130.083 22.7674 130.208 19.5384 130.24 18.2165C130.351 12.5412 129.31 9.60832 129.392 6.60496C129.438 5.95713 129.379 5.30619 129.218 4.67675C128.965 3.74966 128.68 3.69326 128.623 2.94595C128.577 2.26561 128.787 1.88843 128.52 1.31384C128.426 1.07533 128.267 0.867634 128.06 0.714583C127.704 0.471354 127.312 0.503078 126.664 0.56653C125.659 0.665231 125.16 0.714583 125.014 0.746308C123.233 1.13407 121.313 0.393801 117.637 0.56653C115.407 0.672281 114.513 1.01774 112.799 0.732208C112.365 0.639249 111.921 0.600173 111.478 0.615882C110.145 0.679333 109.732 1.24334 108.578 1.40902C107.844 1.51125 108.029 1.28212 106.181 1.11292C104.852 0.986013 103.876 0.897886 102.686 1.16227C101.731 1.37024 101.746 1.56412 101.037 1.60642C99.9965 1.66635 99.6118 1.27507 98.5965 1.29974C98.0408 1.29974 97.9625 1.48305 96.7549 1.8003C93.1107 2.76264 92.5015 2.73444 91.9458 2.50532C91.5896 2.35021 91.2333 2.09993 90.6954 2.15281C90.1575 2.20568 90.0257 2.56524 89.495 2.74502C88.6899 3.0235 88.3337 2.42424 87.0014 2.28323C86.4207 2.22331 86.6166 2.35374 84.6966 2.49826C83.9509 2.58668 83.1995 2.61968 82.4488 2.59697C81.69 2.50179 81.2376 2.29734 80.6498 2.54761C80.3186 2.68862 80.258 2.85077 79.9374 2.90012C79.3817 3.00587 79.0718 2.70272 78.5944 2.57582C77.5008 2.28676 77.1089 3.38305 75.6591 3.34075C74.6189 3.30903 74.5904 2.80495 73.65 2.8825C72.535 2.97062 72.2465 3.68268 71.4129 3.49233C70.761 3.3478 70.5294 2.8261 70.02 2.96005C69.7465 3.06078 69.4932 3.20878 69.272 3.39716C68.1107 3.35486 64.5947 3.3055 63.1769 3.57341C62.9454 3.61571 62.4645 3.71794 61.752 3.79901C61.0396 3.88009 60.9647 3.84484 59.8141 3.92944C58.8773 3.99994 58.3322 4.04929 57.5913 4.09864C56.7791 4.15504 56.373 4.17972 56.1913 4.18324C54.7664 4.18324 54.4102 3.89771 53.4377 3.97527C52.8064 4.03155 52.1933 4.21382 51.6352 4.51107C50.5665 4.6697 49.7008 4.77898 49.0347 4.86358C48.2083 4.96228 47.8128 4.99401 47.3889 5.01516C46.7192 5.05041 46.3202 5.01516 45.7645 5.01516L42.7509 5.09271H39.901C38.6863 5.72722 37.7922 5.7378 37.1973 5.625C36.3138 5.46284 36.1963 5.05393 35.3449 5.01516C34.2762 4.96933 34.123 5.58269 32.8727 5.625C32.0284 5.65672 31.8752 5.38529 31.0915 5.47342C30.4733 5.5599 29.888 5.80272 29.3923 6.17843L26.6138 6.48511C25.3221 7.02768 23.9268 7.28626 22.5243 7.243C21.9246 7.2222 21.3283 7.14549 20.7432 7.01387L17.3447 6.93632L16.8068 7.77881L15.186 8.54022C14.5092 8.42742 13.7005 8.29699 12.7922 8.15952C10.9897 7.88809 10.4945 7.84931 9.85686 8.00794C9.53369 8.09839 9.21904 8.21633 8.91642 8.36044C8.79979 8.39946 8.68081 8.43125 8.56019 8.45562C7.81924 8.59662 6.62944 8.25822 5.99179 8.62835C5.58213 8.861 5.48239 9.33336 5.27934 10.2569C5.06204 11.2898 5.32921 11.4131 5.11191 12.654C5.04657 13.2192 4.90024 13.7723 4.67731 14.2966C4.46002 14.7725 4.27834 14.9523 4.24272 15.3542C4.22589 15.8005 4.3628 16.2393 4.63101 16.5985C4.98723 17.1378 5.13685 18.2377 5.45389 20.4338C6.02742 24.3889 4.90886 25.4993 5.67831 29.3522C5.93123 30.6247 6.2554 31.5236 6.51901 33.5823C6.71493 35.0945 6.75412 36.2789 6.76124 36.5997C6.80399 38.112 6.70068 38.6971 6.55819 41.8697C6.50476 43.1035 6.47626 43.7239 6.4727 44.1751C6.43351 46.9211 6.8503 48.1972 7.18515 50.9044C7.31696 51.9338 7.42026 54.0453 7.61975 58.2718C7.65094 60.0727 7.82964 61.8682 8.15409 63.6405C8.36158 64.7129 8.63279 65.7722 8.96629 66.813C8.96629 68.1561 8.94135 69.4991 8.93066 70.8422L9.51131 71.7798C10.3912 76.0099 10.2558 78.3153 9.94591 79.6619C9.69738 80.632 9.61549 81.6365 9.70368 82.6335C9.80342 83.7263 10.0599 84.0048 10.2843 85.0799C10.7902 87.3183 10.1846 88.0374 10.4304 90.7376C10.5258 91.781 10.7177 92.8135 11.0039 93.8221L12.6247 93.7093C14.2313 93.607 17.4694 93.4202 22.2037 93.325C24.3838 93.2827 26.5603 93.1664 28.744 93.1805C30.8493 93.1805 31.918 93.2722 33.1042 92.7998C33.6543 92.5542 34.2441 92.4073 34.8462 92.3662C35.7688 92.3098 35.8222 92.5707 36.5917 92.5601C38.2909 92.5284 39.1672 91.2311 40.129 91.6964C40.3641 91.8093 40.4389 91.9503 40.7489 92.0137C41.2654 92.1195 41.6002 91.8339 42.1132 91.6612C42.7794 91.418 43.3742 91.499 44.5676 91.6612C45.6363 91.7987 45.6363 91.9749 46.3131 91.9714C46.8047 91.9714 47.3141 91.8234 48.3151 91.5237C49.7044 91.1113 50.0749 90.8857 50.6876 91.0443C51.1543 91.1677 51.1364 91.3475 51.5603 91.4286C52.3583 91.5801 52.8855 91.0373 53.6478 90.7059C54.0967 90.5085 54.2499 90.5508 57.0854 90.6143C58.7561 90.6495 59.579 90.6707 60.4731 90.6601C61.6309 90.6425 62.4823 90.6319 63.526 90.5191C65.5244 90.3005 65.5779 89.9939 67.3697 89.7506C69.3788 89.4757 69.703 89.807 72.0007 89.6026C73.4968 89.4651 73.3757 89.3241 75.5879 88.9857C80.543 88.2207 81.4229 88.8905 83.5317 88.1679C84.1047 87.8978 84.7493 87.8139 85.3734 87.9282C86.1892 88.1397 86.4991 88.7425 87.2115 88.6614C87.6141 88.6156 87.6604 88.4076 88.1841 88.2172C88.768 88.0278 89.3941 88.0059 89.9901 88.1538C90.4105 88.2348 94.1402 88.0374 101.603 87.6426C106.01 87.41 118.203 86.6133 134.668 85.0764C135.02 83.9988 135.094 82.8511 134.882 81.7382ZM9.66449 16.1861C9.66449 15.9769 9.72717 15.7725 9.8446 15.5986C9.96203 15.4246 10.1289 15.2891 10.3242 15.2091C10.5195 15.129 10.7344 15.1081 10.9417 15.1489C11.149 15.1897 11.3394 15.2904 11.4888 15.4383C11.6383 15.5862 11.7401 15.7746 11.7813 15.9798C11.8226 16.1849 11.8014 16.3975 11.7205 16.5908C11.6396 16.784 11.5026 16.9492 11.3269 17.0654C11.1512 17.1816 10.9445 17.2436 10.7332 17.2436C10.4497 17.2436 10.1779 17.1322 9.9775 16.9339C9.77709 16.7355 9.66449 16.4666 9.66449 16.1861ZM10.3769 23.5887C10.3769 23.3796 10.4396 23.1751 10.5571 23.0012C10.6745 22.8273 10.8414 22.6917 11.0367 22.6117C11.2319 22.5317 11.4468 22.5107 11.6541 22.5515C11.8614 22.5923 12.0518 22.693 12.2013 22.8409C12.3508 22.9888 12.4525 23.1773 12.4938 23.3824C12.535 23.5875 12.5138 23.8002 12.433 23.9934C12.3521 24.1866 12.2151 24.3518 12.0394 24.468C11.8636 24.5842 11.657 24.6462 11.4456 24.6462C11.1622 24.6462 10.8904 24.5348 10.69 24.3365C10.4895 24.1382 10.3769 23.8692 10.3769 23.5887ZM11.0894 30.5719C11.0894 30.3627 11.1521 30.1582 11.2695 29.9843C11.3869 29.8104 11.5538 29.6749 11.7491 29.5948C11.9444 29.5148 12.1593 29.4939 12.3666 29.5347C12.5739 29.5755 12.7643 29.6762 12.9138 29.8241C13.0632 29.972 13.165 30.1604 13.2062 30.3656C13.2475 30.5707 13.2263 30.7833 13.1454 30.9766C13.0645 31.1698 12.9276 31.335 12.7518 31.4512C12.5761 31.5674 12.3694 31.6294 12.1581 31.6294C12.016 31.6322 11.8747 31.6069 11.7425 31.555C11.6104 31.5032 11.4901 31.4257 11.3886 31.3272C11.287 31.2287 11.2064 31.1112 11.1514 30.9815C11.0963 30.8518 11.068 30.7125 11.068 30.5719H11.0894ZM11.8019 37.9745C11.8019 37.7653 11.8645 37.5609 11.982 37.387C12.0994 37.2131 12.2663 37.0775 12.4616 36.9975C12.6568 36.9174 12.8717 36.8965 13.079 36.9373C13.2863 36.9781 13.4767 37.0788 13.6262 37.2267C13.7757 37.3746 13.8774 37.563 13.9187 37.7682C13.9599 37.9733 13.9388 38.186 13.8579 38.3792C13.777 38.5724 13.64 38.7376 13.4643 38.8538C13.2885 38.97 13.0819 39.032 12.8705 39.032C12.7284 39.0348 12.5871 39.0096 12.455 38.9577C12.3229 38.9058 12.2025 38.8283 12.101 38.7299C11.9995 38.6314 11.9189 38.5138 11.8638 38.3841C11.8088 38.2544 11.7805 38.1152 11.7805 37.9745H11.8019ZM12.1581 44.4254C12.1581 44.2162 12.2208 44.0117 12.3382 43.8378C12.4556 43.6639 12.6225 43.5284 12.8178 43.4483C13.0131 43.3683 13.2279 43.3474 13.4353 43.3882C13.6426 43.429 13.833 43.5297 13.9824 43.6776C14.1319 43.8255 14.2337 44.0139 14.2749 44.2191C14.3161 44.4242 14.295 44.6368 14.2141 44.8301C14.1332 45.0233 13.9962 45.1885 13.8205 45.3047C13.6447 45.4209 13.4381 45.4829 13.2268 45.4829C13.0843 45.4862 12.9427 45.4612 12.8101 45.4096C12.6776 45.3579 12.5568 45.2805 12.4549 45.182C12.353 45.0835 12.2721 44.9658 12.2168 44.8358C12.1616 44.7059 12.1331 44.5663 12.1331 44.4254H12.1581ZM12.8705 51.828C12.8705 51.6188 12.9332 51.4144 13.0506 51.2405C13.1681 51.0666 13.335 50.931 13.5303 50.851C13.7255 50.7709 13.9404 50.75 14.1477 50.7908C14.355 50.8316 14.5454 50.9323 14.6949 51.0802C14.8443 51.2281 14.9461 51.4165 14.9874 51.6217C15.0286 51.8268 15.0074 52.0395 14.9265 52.2327C14.8457 52.4259 14.7087 52.5911 14.5329 52.7073C14.3572 52.8235 14.1506 52.8855 13.9392 52.8855C13.7965 52.8893 13.6545 52.8647 13.5215 52.8133C13.3885 52.7618 13.2673 52.6845 13.1651 52.5859C13.0628 52.4873 12.9815 52.3695 12.926 52.2393C12.8705 52.1091 12.842 51.9693 12.842 51.828H12.8705ZM13.583 58.8111C13.583 58.602 13.6457 58.3975 13.7631 58.2236C13.8805 58.0497 14.0474 57.9142 14.2427 57.8341C14.438 57.7541 14.6529 57.7331 14.8602 57.7739C15.0675 57.8148 15.2579 57.9155 15.4073 58.0634C15.5568 58.2113 15.6586 58.3997 15.6998 58.6048C15.7411 58.81 15.7199 59.0226 15.639 59.2158C15.5581 59.4091 15.4211 59.5742 15.2454 59.6904C15.0697 59.8066 14.863 59.8687 14.6517 59.8687C14.5089 59.8724 14.3669 59.8479 14.2339 59.7964C14.101 59.7449 13.9798 59.6677 13.8775 59.5691C13.7752 59.4705 13.694 59.3526 13.6385 59.2225C13.583 59.0923 13.5544 58.9524 13.5545 58.8111H13.583ZM14.2954 66.2138C14.2954 66.0046 14.3581 65.8002 14.4755 65.6263C14.593 65.4523 14.7599 65.3168 14.9552 65.2368C15.1504 65.1567 15.3653 65.1358 15.5726 65.1766C15.7799 65.2174 15.9703 65.3181 16.1198 65.466C16.2693 65.6139 16.371 65.8023 16.4123 66.0075C16.4535 66.2126 16.4323 66.4252 16.3515 66.6185C16.2706 66.8117 16.1336 66.9769 15.9579 67.0931C15.7821 67.2093 15.5755 67.2713 15.3641 67.2713C15.2211 67.2755 15.0787 67.2513 14.9453 67.2001C14.8119 67.1488 14.6903 67.0716 14.5876 66.973C14.485 66.8744 14.4034 66.7564 14.3477 66.6259C14.292 66.4955 14.2633 66.3554 14.2634 66.2138H14.2954ZM14.6517 73.6164C14.6517 73.4073 14.7143 73.2028 14.8318 73.0289C14.9492 72.855 15.1161 72.7194 15.3114 72.6394C15.5067 72.5594 15.7215 72.5384 15.9288 72.5792C16.1361 72.62 16.3266 72.7207 16.476 72.8686C16.6255 73.0165 16.7273 73.205 16.7685 73.4101C16.8097 73.6152 16.7886 73.8279 16.7077 74.0211C16.6268 74.2143 16.4898 74.3795 16.3141 74.4957C16.1383 74.6119 15.9317 74.6739 15.7204 74.6739C15.5776 74.6782 15.4355 74.6541 15.3024 74.603C15.1692 74.552 15.0478 74.4751 14.9451 74.3769C14.8425 74.2786 14.7609 74.161 14.705 74.031C14.649 73.901 14.62 73.7612 14.6196 73.6199L14.6517 73.6164ZM15.3641 80.5996C15.3641 80.3904 15.4268 80.1859 15.5442 80.012C15.6617 79.8381 15.8286 79.7026 16.0238 79.6225C16.2191 79.5425 16.434 79.5216 16.6413 79.5624C16.8486 79.6032 17.039 79.7039 17.1885 79.8518C17.3379 79.9997 17.4397 80.1881 17.481 80.3932C17.5222 80.5984 17.501 80.811 17.4201 81.0043C17.3393 81.1975 17.2023 81.3626 17.0265 81.4789C16.8508 81.595 16.6442 81.6571 16.4328 81.6571C16.2898 81.6618 16.1473 81.638 16.0137 81.5872C15.8802 81.5364 15.7583 81.4596 15.6553 81.3613C15.5523 81.263 15.4703 81.1452 15.4142 81.015C15.358 80.8848 15.3289 80.7447 15.3285 80.6031L15.3641 80.5996ZM17.1453 89.0597C16.9339 89.0597 16.7273 88.9977 16.5515 88.8815C16.3758 88.7653 16.2388 88.6001 16.1579 88.4069C16.077 88.2136 16.0559 88.001 16.0971 87.7959C16.1383 87.5907 16.2401 87.4023 16.3896 87.2544C16.539 87.1065 16.7295 87.0058 16.9368 86.965C17.1441 86.9242 17.3589 86.9451 17.5542 87.0252C17.7495 87.1052 17.9164 87.2408 18.0338 87.4147C18.1513 87.5886 18.2139 87.793 18.2139 88.0022C18.214 88.1444 18.1852 88.2852 18.129 88.4161C18.0729 88.547 17.9906 88.6653 17.8872 88.764C17.7838 88.8627 17.6613 88.9398 17.5271 88.9906C17.3929 89.0414 17.2497 89.0649 17.1061 89.0597H17.1453Z" fill="#FFFDFA"/>
</g>
<path d="M26.0594 65.108C25.6298 65.1481 25.2837 65.0594 25.0211 64.8417C24.77 64.6102 24.5994 64.1482 24.5091 63.4555C24.4268 62.7111 24.3198 61.9753 24.1882 61.2483C24.0565 60.5213 23.8904 59.8357 23.69 59.1915C23.4107 58.2488 23.0707 57.4074 22.6701 56.6672C22.2695 55.9271 21.7463 55.3067 21.1004 54.8062C20.9898 54.7146 20.8988 54.6275 20.8274 54.5449C20.7559 54.4623 20.7149 54.3642 20.7043 54.2505C20.6795 53.9851 20.7949 53.7194 21.0504 53.4533C21.3048 53.1746 21.6216 53.0175 22.0007 52.982C22.443 52.9407 22.8398 53.0948 23.1912 53.4444C23.5425 53.794 23.8638 54.2994 24.1551 54.9605C24.4854 55.6308 24.7648 56.3695 24.9932 57.1767C25.2216 57.984 25.4012 58.8149 25.5321 59.6695C25.6744 60.5103 25.7827 61.3287 25.8571 62.1249C25.8831 62.4029 25.9381 62.5826 26.0222 62.664C26.1063 62.7453 26.2431 62.7772 26.4327 62.7594C26.8497 62.7205 27.2486 62.5557 27.6294 62.2652C28.0228 61.9735 28.3637 61.5974 28.6521 61.1371C28.952 60.6629 29.1782 60.151 29.3308 59.6013C29.4834 59.0517 29.5406 58.5046 29.5025 57.96C29.462 57.3901 29.3095 56.8499 29.0451 56.3392C28.7921 55.8147 28.4836 55.3782 28.1196 55.0298C28.0217 54.937 27.9439 54.855 27.8863 54.7839C27.8401 54.699 27.8129 54.6123 27.8046 54.5239C27.7857 54.3217 27.8496 54.1181 27.9962 53.9132C28.1427 53.7083 28.3175 53.5326 28.5205 53.3862C28.7236 53.2397 28.9009 53.1594 29.0525 53.1453C29.3685 53.1157 29.6557 53.3247 29.9142 53.7722C30.1842 54.2059 30.4257 54.7442 30.6388 55.3872C30.9315 56.2011 31.1706 57.1221 31.3559 58.1501C31.5412 59.178 31.6876 60.267 31.795 61.417C31.8245 61.7329 31.8762 61.9448 31.95 62.0526C32.0238 62.1605 32.1682 62.2043 32.383 62.1843C32.8379 62.1417 33.2649 61.9361 33.6638 61.5674C34.0628 61.1987 34.4 60.7147 34.6754 60.1153C34.9623 59.5021 35.1662 58.8202 35.2873 58.0695C35.4198 57.305 35.4477 56.5121 35.3709 55.6907C35.3131 55.0714 35.2159 54.577 35.0793 54.2073C34.9543 53.8239 34.8398 53.5541 34.736 53.3981C34.5872 53.1698 34.5051 52.9735 34.4898 52.8092C34.4721 52.6197 34.5377 52.4351 34.6866 52.2554C34.847 52.062 35.0419 51.8972 35.2714 51.761C35.5009 51.6248 35.7041 51.5485 35.881 51.5319C36.159 51.506 36.3661 51.6077 36.5023 51.8372C36.6499 52.0528 36.7523 52.3301 36.8094 52.6689C36.8792 53.0066 36.9283 53.3271 36.9567 53.6304C37.0381 54.5023 37.029 55.4274 36.9292 56.4055C36.8408 57.3698 36.6686 58.3228 36.4124 59.2646C36.1551 60.1937 35.8205 61.0472 35.4088 61.825C35.0085 62.589 34.5321 63.2199 33.9795 63.7177C33.4257 64.2029 32.8076 64.4774 32.1252 64.5411C31.6703 64.5836 31.326 64.5138 31.0922 64.3317C30.8585 64.1496 30.6929 63.8783 30.5955 63.5177C30.4981 63.1571 30.4263 62.7304 30.3803 62.2376C30.3531 61.9469 30.3277 61.6752 30.3041 61.4225C30.2919 61.1559 30.2758 60.9152 30.2557 60.7004C29.7961 62.0563 29.1874 63.1139 28.4298 63.8731C27.6709 64.6196 26.8808 65.0312 26.0594 65.108ZM39.8605 63.7609C39.6583 63.7798 39.4904 63.7572 39.357 63.6932C39.2373 63.6407 39.1888 63.5305 39.2114 63.3626C39.2996 62.8063 39.3619 62.2459 39.3984 61.6816C39.4464 61.1035 39.4462 60.5554 39.3977 60.0373C39.3352 59.3675 39.2455 58.8851 39.1287 58.5901C39.0233 58.2812 38.8958 58.0765 38.7462 57.9757C38.5954 57.8623 38.4159 57.7835 38.2078 57.7392C38.1158 57.7096 38.0289 57.6667 37.9472 57.6106C37.8781 57.5533 37.8383 57.4678 37.8276 57.3541C37.8111 57.1771 37.8623 56.9748 37.9812 56.747C38.1002 56.5191 38.2789 56.3176 38.5175 56.1423C38.7549 55.9544 39.0379 55.8451 39.3664 55.8144C39.7961 55.7743 40.1072 55.8982 40.2998 56.1861C40.5039 56.4602 40.6284 56.8374 40.6733 57.3176C40.8535 56.7909 41.0943 56.3668 41.3957 56.0454C41.7086 55.7103 42.1178 55.5191 42.6232 55.4718C42.9644 55.4399 43.2559 55.4892 43.4975 55.6196C43.7391 55.75 43.8759 55.9858 43.9078 56.327C43.9397 56.6682 43.8561 57.001 43.6569 57.3256C43.4693 57.6363 43.2617 57.8023 43.0342 57.8236C42.9963 57.8271 42.9515 57.8249 42.8998 57.817C42.848 57.8091 42.8009 57.7816 42.7582 57.7346C42.575 57.5478 42.3634 57.4656 42.1233 57.488C41.7568 57.5223 41.457 57.7925 41.2239 58.2987C40.9907 58.8049 40.9011 59.4825 40.9549 60.3315C40.9971 60.6463 41.0335 60.9679 41.0642 61.2965C41.1076 61.6239 41.1363 61.8634 41.1505 62.015C41.1942 62.4826 41.0975 62.8804 40.8605 63.2085C40.6361 63.5354 40.3028 63.7196 39.8605 63.7609ZM46.024 53.4714C45.669 53.4918 45.3747 53.4109 45.1409 53.2288C44.9072 53.0467 44.7732 52.7724 44.739 52.4059C44.715 52.013 44.8182 51.6847 45.0485 51.421C45.2776 51.1446 45.5886 50.9944 45.9815 50.9705C46.3492 50.9488 46.6436 51.0297 46.8647 51.213C47.0984 51.3951 47.2261 51.67 47.2477 52.0376C47.2705 52.4179 47.1736 52.7457 46.9571 53.0209C46.7395 53.2834 46.4284 53.4336 46.024 53.4714ZM46.9411 63.0801C46.562 63.1155 46.2556 63.0422 46.0219 62.86C45.787 62.6653 45.6459 62.3152 45.5986 61.8097C45.5715 61.519 45.5702 61.2323 45.5948 60.9496C45.632 60.6657 45.6761 60.3875 45.7271 60.115C45.7896 59.8287 45.8325 59.5379 45.8559 59.2425C45.8919 58.946 45.8946 58.6334 45.8639 58.3049C45.8426 58.0774 45.7909 57.8655 45.7089 57.6692C45.6256 57.4603 45.4718 57.3153 45.2476 57.2343C45.075 57.1612 44.9214 57.0863 44.7868 57.0097C44.6636 56.9192 44.5949 56.7981 44.5807 56.6465C44.5642 56.4696 44.6286 56.2723 44.774 56.0548C44.9194 55.8373 45.1183 55.6466 45.3707 55.4828C45.6345 55.3051 45.9118 55.2027 46.2024 55.1756C46.5184 55.1461 46.7535 55.2069 46.9079 55.3582C47.0749 55.5083 47.1954 55.7074 47.2696 55.9554C47.3438 56.2034 47.3933 56.4601 47.4181 56.7255C47.4558 57.1299 47.4615 57.5309 47.4349 57.9286C47.4071 58.3136 47.377 58.6733 47.3445 59.0078C47.3164 59.2526 47.2992 59.4773 47.2928 59.6819C47.2864 59.8864 47.2915 60.0772 47.308 60.2541C47.3375 60.57 47.4358 60.803 47.6028 60.9532C47.7686 61.0906 47.997 61.2159 48.288 61.3289C48.4077 61.3815 48.4734 61.4709 48.4852 61.5973C48.4947 61.6984 48.4589 61.8611 48.3779 62.0854C48.2968 62.3096 48.1382 62.522 47.902 62.7226C47.6784 62.9219 47.3581 63.0411 46.9411 63.0801ZM52.8046 62.5895C52.0337 62.6615 51.4541 62.4607 51.0657 61.9871C50.6887 61.4997 50.4624 60.8516 50.3868 60.0429C50.3596 59.7522 50.3457 59.4667 50.345 59.1863C50.3569 58.9048 50.3689 58.6232 50.3808 58.3416C50.3927 58.0601 50.4052 57.7848 50.4184 57.5159C50.4315 57.247 50.4394 56.9913 50.4423 56.7488C50.184 56.8495 49.9221 56.9122 49.6568 56.937C49.3788 56.963 49.2291 56.8622 49.2079 56.6347C49.1854 56.3946 49.2657 56.094 49.4486 55.7327C49.6304 55.3588 49.8633 54.9864 50.1473 54.6157C50.444 54.2438 50.7397 53.9294 51.0343 53.6724C51.3405 53.4016 51.6073 53.2555 51.8347 53.2343C52.1128 53.2083 52.2742 53.4354 52.3191 53.9156C52.3309 54.042 52.3306 54.1759 52.3184 54.3172C52.3175 54.4448 52.311 54.5792 52.2987 54.7206C52.5341 54.6476 52.77 54.581 53.0066 54.5206C53.2558 54.4591 53.4941 54.4177 53.7216 54.3964C54.0123 54.3693 54.2381 54.3991 54.3992 54.4861C54.573 54.5718 54.6734 54.76 54.7006 55.0507C54.7289 55.3539 54.6814 55.6643 54.5581 55.9818C54.4475 56.2981 54.3037 56.4645 54.1268 56.481C54.0888 56.4845 54.0251 56.4841 53.9354 56.4798C53.8458 56.4754 53.7366 56.4665 53.6079 56.453C53.44 56.4305 53.228 56.412 52.9717 56.3977C52.7154 56.3834 52.4104 56.3928 52.0565 56.4259C52.0047 56.8259 51.9603 57.238 51.9235 57.6621C51.8981 58.0724 51.9007 58.4418 51.9314 58.7704C51.9999 59.5033 52.2298 59.9854 52.6211 60.2165C53.0124 60.4476 53.5555 60.5307 54.2506 60.4658C54.4654 60.4457 54.6206 60.4694 54.7161 60.537C54.8105 60.5919 54.8659 60.7078 54.8825 60.8847C54.9214 61.3018 54.7397 61.6757 54.3372 62.0065C53.9347 62.3373 53.4238 62.5316 52.8046 62.5895ZM59.2144 61.9905C58.254 62.0802 57.4767 61.8788 56.8825 61.3862C56.2998 60.8798 55.9624 60.1337 55.8703 59.148C55.7864 58.2508 55.9061 57.4174 56.2294 56.6478C56.5526 55.8783 57.0228 55.2479 57.6397 54.7569C58.2682 54.252 58.9804 53.9623 59.7766 53.8879C60.5348 53.8171 61.1591 53.9499 61.6495 54.2865C62.1386 54.6105 62.4122 55.0821 62.47 55.7013C62.5161 56.1942 62.407 56.6633 62.1426 57.1086C61.8783 57.554 61.5052 57.9267 61.0234 58.2267C60.5403 58.514 59.9892 58.6866 59.37 58.7445C58.6118 58.8153 57.9766 58.7026 57.4645 58.4063C57.5315 58.9864 57.771 59.4357 58.1832 59.7541C58.608 60.0713 59.1237 60.2016 59.7303 60.1449C60.0968 60.1106 60.4637 60.0126 60.831 59.8508C61.2097 59.6752 61.5275 59.4607 61.7842 59.2072C61.947 59.039 62.1042 58.9479 62.2558 58.9337C62.3822 58.9219 62.4874 58.9567 62.5715 59.038C62.6671 59.1056 62.7207 59.2025 62.7326 59.3289C62.7585 59.6069 62.5527 59.9958 62.115 60.4957C61.3439 61.3836 60.377 61.8818 59.2144 61.9905ZM59.0825 57.5093C59.5374 57.4668 59.9077 57.3366 60.1932 57.1187C60.4788 56.9008 60.608 56.6465 60.5808 56.3559C60.5584 56.1158 60.4402 55.942 60.2262 55.8345C60.011 55.7144 59.7265 55.6709 59.3727 55.704C58.9051 55.7476 58.5062 55.9124 58.176 56.1982C57.8572 56.4702 57.6427 56.8344 57.5324 57.2909C57.7199 57.3881 57.9556 57.4553 58.2396 57.4925C58.5235 57.5297 58.8044 57.5353 59.0825 57.5093ZM72.8865 60.6554C72.7348 60.6696 72.5745 60.6591 72.4055 60.6239C72.2491 60.5875 72.1115 60.4793 71.9927 60.2992C71.8739 60.1191 71.7962 59.8331 71.7596 59.4414C71.7336 59.1634 71.7207 58.8204 71.7208 58.4125C71.7335 58.0034 71.756 57.5615 71.7881 57.0868C71.8302 56.4455 71.8503 55.7744 71.8485 55.0735C71.8582 54.3587 71.8288 53.6348 71.7603 52.9019C71.7048 52.3079 71.6254 51.7991 71.5221 51.3753C71.4302 50.9378 71.3288 50.6031 71.2179 50.3712C70.7389 50.4287 70.2869 50.5028 69.8619 50.5935C69.437 50.6842 69.0087 50.8071 68.577 50.9622C68.4645 50.9855 68.3652 51.0139 68.2791 51.0474C68.2044 51.0671 68.1292 51.0805 68.0534 51.0876C67.9396 51.0982 67.8557 51.087 67.8016 51.0538C67.7464 51.008 67.7105 50.8966 67.6939 50.7197C67.6738 50.5048 67.6848 50.2807 67.7267 50.0474C67.7674 49.8013 67.8433 49.5903 67.9544 49.4142C68.0642 49.2255 68.1977 49.0855 68.3549 48.9944C68.5236 48.8894 68.7078 48.8148 68.9076 48.7706C69.22 48.7032 69.6214 48.6338 70.1119 48.5625C70.6012 48.4785 71.1354 48.3967 71.7143 48.3171C72.3059 48.2363 72.886 48.1694 73.4547 48.1162C74.3772 48.03 75.0349 47.9749 75.4278 47.951C75.8334 47.9258 76.1069 47.9194 76.2482 47.9316C76.4275 47.9404 76.5529 47.986 76.6243 48.0686C76.7072 48.1373 76.757 48.2602 76.7735 48.4371C76.8054 48.7783 76.6856 49.1336 76.4142 49.5032C76.302 49.6666 76.1805 49.7991 76.0498 49.9005C75.9179 49.9894 75.7376 50.0381 75.5089 50.0467C75.3044 50.0403 75.0057 50.0491 74.6127 50.0731C74.2198 50.0971 73.7832 50.1315 73.303 50.1764C73.3317 50.6198 73.3422 51.1415 73.3345 51.7414C73.3383 52.3274 73.33 52.9209 73.3097 53.5219C73.2882 54.1103 73.2794 54.6975 73.2831 55.2836C73.2869 55.8696 73.3112 56.4027 73.3561 56.8829C73.3975 57.3252 73.472 57.7134 73.5797 58.0475C73.6988 58.3678 73.896 58.6362 74.1712 58.8527C74.3646 59.0131 74.4708 59.1944 74.4897 59.3966C74.5157 59.6746 74.3814 59.9421 74.0867 60.1991C73.792 60.4561 73.3919 60.6082 72.8865 60.6554ZM79.818 60.065C78.946 60.1465 78.2228 59.9783 77.6484 59.5603C77.0854 59.1285 76.7608 58.4514 76.6745 57.5289C76.6344 57.0992 76.6523 56.6769 76.7282 56.2619C76.8168 55.8457 76.9457 55.4512 77.1148 55.0785C76.9244 55.2237 76.7787 55.3011 76.6776 55.3105C76.5259 55.3247 76.4108 55.2526 76.3323 55.0942C76.2652 54.922 76.224 54.7538 76.2086 54.5895C76.1815 54.2989 76.2171 54.0661 76.3155 53.8912C76.4253 53.7024 76.533 53.5585 76.6384 53.4594C76.8826 53.2072 77.2766 52.9218 77.8204 52.6033C78.3631 52.2721 79.0325 52.0693 79.8287 51.9949C80.9154 51.8934 81.7841 52.1181 82.4348 52.6692C83.098 53.2191 83.4805 54.0374 83.582 55.1242C83.6611 55.9709 83.5563 56.7583 83.2674 57.4864C82.9773 58.2019 82.5352 58.7913 81.9412 59.2547C81.3598 59.717 80.652 59.9871 79.818 60.065ZM80.2249 58.0767C80.8568 58.0176 81.3692 57.7721 81.7623 57.3402C82.1668 56.8945 82.3383 56.3431 82.2769 55.686C82.2131 55.0036 81.9465 54.5377 81.4771 54.2884C81.0076 54.0391 80.4822 53.9416 79.9009 53.9959C79.6355 54.0207 79.3978 54.0684 79.1877 54.139C78.9776 54.2096 78.7813 54.2917 78.5988 54.3853C78.4455 54.6545 78.3141 54.9536 78.2047 55.2826C78.0952 55.6115 78.0581 55.9655 78.0936 56.3446C78.1526 56.9764 78.387 57.4389 78.7969 57.7321C79.2055 58.0126 79.6815 58.1274 80.2249 58.0767ZM88.3053 64.3007C87.3576 64.3893 86.5873 64.2637 85.9947 63.9239C85.4021 63.5841 85.0768 63.1046 85.0189 62.4854C84.9764 62.0305 85.0776 61.6131 85.3226 61.2333C85.5802 60.8523 85.9428 60.6399 86.4103 60.5962C86.6757 60.5714 86.8155 60.6349 86.8297 60.7865C86.8379 60.875 86.8284 60.9778 86.8011 61.0951C86.7865 61.2112 86.7845 61.3261 86.7951 61.4399C86.8282 61.7937 87.0546 62.0339 87.4743 62.1604C87.8952 62.2995 88.39 62.3425 88.9587 62.2893C89.3125 62.2563 89.6691 62.1847 90.0285 62.0746C90.3879 61.9646 90.68 61.8162 90.9048 61.6294C91.1433 61.4542 91.2502 61.2339 91.2254 60.9685C91.1982 60.6778 91.0328 60.4766 90.7292 60.3647C90.4256 60.2529 90.049 60.1797 89.5997 60.1452C89.1515 60.1234 88.6906 60.1027 88.2171 60.0832C87.7575 60.0752 87.3575 60.0233 87.0171 59.9277C86.5871 59.8276 86.2615 59.686 86.0404 59.5027C85.8194 59.3194 85.694 59.0698 85.6645 58.7538C85.609 58.1599 85.9249 57.6523 86.6121 57.2312C86.175 57.0553 85.8308 56.7816 85.5793 56.4099C85.3405 56.037 85.1987 55.6105 85.1538 55.1303C85.0959 54.5111 85.1996 53.915 85.4647 53.3421C85.7425 52.768 86.1814 52.2808 86.7813 51.8806C87.3928 51.4665 88.1787 51.2146 89.1391 51.1248C89.5688 51.0847 90.0089 51.0882 90.4594 51.1353C90.9088 51.1698 91.2895 51.2872 91.6014 51.4875C91.9248 51.674 92.1059 51.9757 92.1449 52.3928C92.1591 52.5444 92.1434 52.718 92.0979 52.9134C92.0513 53.0962 91.9395 53.1959 91.7626 53.2125C91.6868 53.2195 91.5845 53.2163 91.4558 53.2029C91.3258 53.1768 91.2092 53.1558 91.1057 53.14C91.1428 53.264 91.1747 53.4012 91.2015 53.5517C91.241 53.701 91.2684 53.8578 91.2837 54.022C91.3534 54.7676 91.1638 55.4673 90.7151 56.1212C90.2651 56.7623 89.5589 57.1853 88.5964 57.3899C88.245 57.4483 87.9837 57.5173 87.8127 57.597C87.6532 57.6629 87.5799 57.7654 87.5929 57.9044C87.6047 58.0307 87.6893 58.1184 87.8469 58.1675C88.0033 58.2038 88.2027 58.2234 88.4452 58.2263C89.2219 58.2174 89.9144 58.2611 90.5225 58.3572C91.1306 58.4533 91.6143 58.6503 91.9735 58.9482C92.3466 59.2575 92.5621 59.7218 92.62 60.341C92.6873 61.0613 92.5303 61.7006 92.1491 62.2589C91.7817 62.8286 91.2577 63.2919 90.5772 63.6487C89.8967 64.0054 89.1394 64.2228 88.3053 64.3007ZM88.2338 55.7603C88.8151 55.7059 89.2553 55.5055 89.5543 55.1588C89.8534 54.8122 89.9793 54.3862 89.932 53.8807C89.919 53.7417 89.8934 53.6038 89.8552 53.4672C89.8157 53.3179 89.7786 53.1939 89.7439 53.0952C89.5358 53.0509 89.3364 53.0313 89.1457 53.0363C88.9537 53.0288 88.7693 53.0333 88.5924 53.0498C87.9226 53.1124 87.41 53.2878 87.0545 53.5759C86.699 53.8641 86.5419 54.2293 86.5833 54.6716C86.6199 55.0634 86.7872 55.3537 87.0853 55.5425C87.3834 55.7314 87.7662 55.804 88.2338 55.7603ZM96.7924 58.4788C95.832 58.5685 95.0547 58.3671 94.4605 57.8745C93.8778 57.368 93.5404 56.622 93.4483 55.6363C93.3644 54.739 93.4841 53.9056 93.8074 53.1361C94.1306 52.3665 94.6008 51.7362 95.2177 51.2451C95.8462 50.7403 96.5584 50.4506 97.3546 50.3762C98.1128 50.3054 98.7371 50.4382 99.2275 50.7748C99.7166 51.0988 99.9902 51.5704 100.048 52.1896C100.094 52.6824 99.985 53.1515 99.7206 53.5969C99.4563 54.0423 99.0832 54.4149 98.6014 54.7149C98.1183 55.0023 97.5672 55.1749 96.948 55.2327C96.1898 55.3036 95.5546 55.1909 95.0425 54.8945C95.1095 55.4747 95.349 55.9239 95.7612 56.2423C96.186 56.5596 96.7017 56.6898 97.3083 56.6332C97.6748 56.5989 98.0417 56.5009 98.409 56.3391C98.7877 56.1635 99.1055 55.9489 99.3622 55.6955C99.525 55.5273 99.6822 55.4361 99.8338 55.422C99.9602 55.4101 100.065 55.4449 100.15 55.5263C100.245 55.5939 100.299 55.6908 100.311 55.8172C100.337 56.0952 100.131 56.4841 99.693 56.9839C98.9219 57.8718 97.955 58.3701 96.7924 58.4788ZM96.6605 53.9976C97.1154 53.9551 97.4857 53.8249 97.7712 53.607C98.0568 53.3891 98.186 53.1348 98.1589 52.8442C98.1364 52.6041 98.0182 52.4303 97.8042 52.3228C97.589 52.2027 97.3045 52.1592 96.9507 52.1922C96.4831 52.2359 96.0842 52.4007 95.754 52.6865C95.4352 52.9585 95.2207 53.3227 95.1104 53.7792C95.2979 53.8764 95.5336 53.9436 95.8176 53.9808C96.1015 54.018 96.3825 54.0236 96.6605 53.9976ZM104.821 57.7284C104.051 57.8005 103.471 57.5997 103.083 57.1261C102.706 56.6387 102.479 55.9906 102.404 55.1818C102.376 54.8912 102.363 54.6056 102.362 54.3253C102.374 54.0437 102.386 53.7621 102.398 53.4806C102.41 53.199 102.422 52.9238 102.435 52.6549C102.448 52.3859 102.456 52.1302 102.459 51.8878C102.201 51.9884 101.939 52.0511 101.674 52.0759C101.396 52.1019 101.246 52.0012 101.225 51.7737C101.202 51.5336 101.283 51.2329 101.465 50.8716C101.647 50.4977 101.88 50.1254 102.164 49.7547C102.461 49.3827 102.757 49.0683 103.051 48.8113C103.357 48.5405 103.624 48.3945 103.852 48.3732C104.13 48.3472 104.291 48.5743 104.336 49.0546C104.348 49.1809 104.347 49.3148 104.335 49.4562C104.334 49.5837 104.328 49.7182 104.316 49.8595C104.551 49.7866 104.787 49.7199 105.023 49.6595C105.273 49.598 105.511 49.5566 105.738 49.5354C106.029 49.5082 106.255 49.5381 106.416 49.625C106.59 49.7107 106.69 49.8989 106.717 50.1896C106.746 50.4929 106.698 50.8033 106.575 51.1207C106.464 51.437 106.321 51.6034 106.144 51.6199C106.106 51.6235 106.042 51.6231 105.952 51.6187C105.863 51.6143 105.753 51.6054 105.625 51.592C105.457 51.5694 105.245 51.551 104.989 51.5367C104.732 51.5224 104.427 51.5318 104.073 51.5648C104.022 51.9649 103.977 52.3769 103.94 52.801C103.915 53.2113 103.918 53.5807 103.948 53.9093C104.017 54.6423 104.247 55.1243 104.638 55.3554C105.029 55.5866 105.572 55.6696 106.267 55.6047C106.482 55.5846 106.637 55.6084 106.733 55.6759C106.827 55.7308 106.883 55.8468 106.899 56.0237C106.938 56.4407 106.757 56.8146 106.354 57.1454C105.952 57.4762 105.441 57.6706 104.821 57.7284ZM108.992 57.3005C108.815 57.317 108.659 57.2869 108.525 57.2103C108.391 57.1463 108.33 57.0436 108.343 56.9022C108.438 55.8735 108.5 54.8352 108.53 53.7871C108.571 52.7252 108.542 51.6636 108.442 50.602C108.355 49.6669 108.244 48.8232 108.11 48.0708C107.976 47.3185 107.706 46.6108 107.3 45.9476C107.224 45.8145 107.162 45.6992 107.115 45.6016C107.067 45.5041 107.039 45.4111 107.031 45.3226C107.009 45.0825 107.126 44.8357 107.383 44.5823C107.652 44.3277 107.945 44.1856 108.261 44.1561C108.703 44.1147 109.032 44.3644 109.248 44.9051C109.465 45.4458 109.624 46.2595 109.725 47.3463C109.847 48.6479 109.877 49.7923 109.817 50.7796C109.755 51.7541 109.69 52.4995 109.624 53.0156L109.703 53.0464C109.893 52.353 110.138 51.6992 110.438 51.0848C110.75 50.4692 111.13 49.9621 111.577 49.5634C112.024 49.1647 112.563 48.9358 113.195 48.8768C113.865 48.8142 114.389 48.9691 114.768 49.3416C115.16 49.7129 115.384 50.1956 115.439 50.7895C115.463 51.0423 115.46 51.291 115.432 51.5359C115.403 51.7681 115.367 51.9945 115.324 52.2153C115.279 52.4234 115.242 52.6372 115.212 52.8567C115.18 53.0636 115.174 53.2745 115.194 53.4894C115.231 53.8811 115.356 54.1945 115.569 54.4295C115.781 54.6519 116.05 54.7989 116.375 54.8705C116.466 54.8875 116.533 54.9195 116.575 54.9665C116.629 54.9997 116.662 55.0731 116.672 55.1869C116.683 55.3006 116.66 55.4684 116.605 55.6903C116.549 55.9123 116.429 56.1274 116.244 56.3359C116.059 56.5317 115.77 56.6479 115.378 56.6845C114.873 56.7318 114.464 56.5915 114.153 56.2636C113.841 55.9231 113.658 55.4685 113.605 54.8999C113.579 54.6218 113.578 54.3351 113.601 54.0398C113.637 53.7432 113.681 53.4587 113.732 53.1862C113.77 52.9149 113.804 52.6632 113.833 52.431C113.861 52.1862 113.868 51.9816 113.852 51.8174C113.798 51.236 113.468 50.9737 112.861 51.0304C112.356 51.0777 111.924 51.3028 111.567 51.7059C111.221 52.0952 110.935 52.5808 110.709 53.1628C110.494 53.731 110.325 54.314 110.203 54.9119L110.263 55.5564C110.307 56.0239 110.204 56.4224 109.954 56.7516C109.717 57.0797 109.396 57.2627 108.992 57.3005ZM120.987 56.2178C120.026 56.3075 119.249 56.1061 118.655 55.6135C118.072 55.107 117.735 54.361 117.643 53.3753C117.559 52.478 117.678 51.6446 118.002 50.8751C118.325 50.1055 118.795 49.4752 119.412 48.9841C120.04 48.4793 120.753 48.1896 121.549 48.1152C122.307 48.0444 122.931 48.1772 123.422 48.5138C123.911 48.8378 124.184 49.3094 124.242 49.9286C124.288 50.4214 124.179 50.8905 123.915 51.3359C123.651 51.7813 123.278 52.1539 122.796 52.4539C122.313 52.7413 121.762 52.9139 121.142 52.9717C120.384 53.0426 119.749 52.9299 119.237 52.6335C119.304 53.2137 119.543 53.6629 119.956 53.9813C120.38 54.2986 120.896 54.4288 121.503 54.3722C121.869 54.3379 122.236 54.2399 122.603 54.0781C122.982 53.9025 123.3 53.6879 123.557 53.4345C123.719 53.2663 123.877 53.1751 124.028 53.161C124.155 53.1491 124.26 53.1839 124.344 53.2653C124.439 53.3329 124.493 53.4298 124.505 53.5562C124.531 53.8342 124.325 54.2231 123.887 54.7229C123.116 55.6108 122.149 56.1091 120.987 56.2178ZM120.855 51.7366C121.31 51.6941 121.68 51.5639 121.966 51.346C122.251 51.1281 122.38 50.8738 122.353 50.5832C122.331 50.3431 122.213 50.1693 121.999 50.0618C121.783 49.9417 121.499 49.8982 121.145 49.9312C120.677 49.9749 120.279 50.1397 119.948 50.4255C119.63 50.6975 119.415 51.0617 119.305 51.5182C119.492 51.6154 119.728 51.6826 120.012 51.7198C120.296 51.757 120.577 51.7626 120.855 51.7366ZM127.382 55.5819C127.18 55.6008 127.012 55.5782 126.879 55.5142C126.759 55.4616 126.71 55.3514 126.733 55.1836C126.821 54.6272 126.884 54.0669 126.92 53.5026C126.968 52.9245 126.968 52.3764 126.919 51.8582C126.857 51.1885 126.767 50.7061 126.65 50.411C126.545 50.1022 126.417 49.8974 126.268 49.7967C126.117 49.6833 125.937 49.6045 125.729 49.5602C125.637 49.5305 125.551 49.4877 125.469 49.4316C125.4 49.3743 125.36 49.2888 125.349 49.175C125.333 48.9981 125.384 48.7957 125.503 48.5679C125.622 48.3401 125.801 48.1386 126.039 47.9633C126.276 47.7754 126.559 47.6661 126.888 47.6354C127.318 47.5952 127.629 47.7191 127.821 48.0071C128.026 48.2812 128.15 48.6583 128.195 49.1386C128.375 48.6118 128.616 48.1878 128.917 47.8664C129.23 47.5312 129.639 47.34 130.145 47.2928C130.486 47.2609 130.777 47.3102 131.019 47.4405C131.261 47.5709 131.397 47.8067 131.429 48.1479C131.461 48.4891 131.378 48.822 131.179 49.1465C130.991 49.4573 130.783 49.6233 130.556 49.6445C130.518 49.6481 130.473 49.6459 130.421 49.638C130.37 49.6301 130.322 49.6026 130.28 49.5556C130.097 49.3687 129.885 49.2865 129.645 49.309C129.278 49.3432 128.979 49.6135 128.745 50.1196C128.512 50.6258 128.423 51.3035 128.477 52.1525C128.519 52.4672 128.555 52.7889 128.586 53.1175C128.629 53.4448 128.658 53.6844 128.672 53.836C128.716 54.3036 128.619 54.7014 128.382 55.0295C128.158 55.3564 127.824 55.5405 127.382 55.5819Z" fill="#D17E00"/>
<defs>
<filter id="filter0_d_0_1" x="0.934354" y="0.521179" width="137.373" height="99.9148" filterUnits="userSpaceOnUse" color-interpolation-filters="sRGB">
<feFlood flood-opacity="0" result="BackgroundImageFix"/>
<feColorMatrix in="SourceAlpha" type="matrix" values="0 0 0 0 0 0 0 0 0 0 0 0 0 0 0 0 0 0 127 0" result="hardAlpha"/>
<feOffset dy="3.30698"/>
<feGaussianBlur stdDeviation="1.65349"/>
<feComposite in2="hardAlpha" operator="out"/>
<feColorMatrix type="matrix" values="0 0 0 0 0 0 0 0 0 0 0 0 0 0 0 0 0 0 0.25 0"/>
<feBlend mode="normal" in2="BackgroundImageFix" result="effect1_dropShadow_0_1"/>
<feBlend mode="normal" in="SourceGraphic" in2="effect1_dropShadow_0_1" result="shape"/>
</filter>
</defs>
</svg>
