<svg width="52" height="68" viewBox="0 0 52 68" fill="none" xmlns="http://www.w3.org/2000/svg">
<path d="M42.579 6.34812C40.2799 7.86608 38.0653 9.50381 35.9449 11.2543C23.9157 21.1761 17.9047 32.2423 14.2059 39.2183C10.2882 46.6161 7.21776 54.4167 5.05078 62.4774C4.03855 63.2551 3.1731 64.2007 2.49368 65.2714C2.1081 65.8815 1.78479 66.5275 1.52846 67.1999C0.829189 65.6191 0.56947 63.8849 0.775737 62.1737L7.1613 48.3312C6.86208 46.5386 6.77266 44.7183 6.89478 42.9058C6.96542 41.2456 7.2597 39.6018 7.76996 38.0173C8.20231 36.7167 8.78728 35.4697 9.51311 34.3015C9.51649 35.2878 9.60444 36.272 9.77603 37.2438C9.86607 37.7665 9.97411 38.254 10.093 38.7061C10.111 37.455 10.2145 36.2066 10.4027 34.9691C10.7768 32.5994 11.4356 30.2815 12.3656 28.0637C13.6101 24.933 15.2058 21.9476 17.1232 19.1627C19.0356 16.2699 20.2962 14.9595 21.0381 14.246C21.9655 13.3433 22.9664 12.5164 24.031 11.7735C23.553 12.7988 23.2442 13.8921 23.1162 15.0125C23.0382 15.6892 23.0273 16.3717 23.0838 17.0505C23.8882 15.5079 24.8218 14.0335 25.875 12.6424C27.384 10.6432 33.6291 2.63584 44.459 0.689625C46.8752 0.260821 49.3398 0.157434 51.7846 0.382329C51.1711 1.02094 50.6008 1.6982 50.0774 2.40978C47.9741 5.29907 48.0534 6.90973 45.824 10.9929C45.1305 12.3232 44.3066 13.5842 43.3642 14.7582C42.529 15.7967 41.581 16.743 40.5369 17.5803C38.8694 18.8978 37.9042 19.1486 34.7924 20.8193C33.8848 21.3068 32.5559 22.0379 30.9712 23.0057C32.1381 22.7231 33.3734 22.377 34.6664 21.9461C36.7443 21.2565 38.7678 20.4183 40.7206 19.4382C40.2704 20.3849 39.6149 21.6847 38.7325 23.1859C36.3195 27.3008 34.2198 30.8753 30.3589 32.9275C29.1672 33.5224 27.9433 34.053 26.6925 34.517C23.9698 35.5766 22.115 35.9969 22.1366 36.0746C22.1582 36.1524 24.6577 35.7214 27.4525 34.8702C29.2885 34.318 31.0859 33.649 32.8332 32.8675C31.3415 35.5607 29.4573 38.0262 27.24 40.1861C25.9715 41.4796 24.5565 42.6267 23.0226 43.6052C20.6851 45.0498 18.1532 45.9823 16.302 46.664C15.1913 47.0583 14.1186 47.5488 13.0967 48.1299C12.4744 48.4859 11.8732 48.8763 11.2959 49.299C12.8447 45.042 14.7142 40.9038 16.8891 36.9188C18.8664 33.3019 20.6095 30.6952 21.9637 28.6748C24.3047 25.1956 27.0059 21.1796 31.1729 16.6302C34.6323 12.8544 38.4517 9.41137 42.579 6.34812Z" fill="#545454"/>
</svg>
